<svg xmlns="http://www.w3.org/2000/svg" xmlns:xlink="http://www.w3.org/1999/xlink" viewBox="0 0 469.23 153.62"><defs><style>.cls-1{fill:none;}.cls-2{clip-path:url(#clip-path);}.cls-3{fill:#fff;}.cls-4{fill:#727171;}.cls-5{fill:#707170;}.cls-6{clip-path:url(#clip-path-2);}</style><clipPath id="clip-path" transform="translate(0 2.4)"><rect class="cls-1" width="475.88" height="149.02"/></clipPath><clipPath id="clip-path-2" transform="translate(0 2.4)"><rect class="cls-1" width="468.02" height="150.99"/></clipPath></defs><g id="圖層_2" data-name="圖層 2"><g id="圖層_1-2" data-name="圖層 1"><g class="cls-2"><path class="cls-3" d="M0,147.64H125.69V.72H0Z" transform="translate(0 2.4)"/><path class="cls-3" d="M5.48,141.9H120V6.22H5.48Z" transform="translate(0 2.4)"/><path class="cls-4" d="M25.23,107h0L20,106.48a1.7,1.7,0,0,1-1.91-1.91,1.72,1.72,0,0,1,1.67-1.92h9.52V98.11H18.81c-1.19,0-5.48,1-5.48,6.93s5,6.47,5,6.47h4.76s2.14,0,2.14,2.63c0,2.87-2.38,2.87-2.38,2.87H13.57v4.55H25c.71,0,5.23-.72,5.23-7.66S25.23,107,25.23,107Z" transform="translate(0 2.4)"/><path class="cls-4" d="M31.42,102.65H46.9V98.11H31.42Z" transform="translate(0 2.4)"/><path class="cls-4" d="M106.41,98.11h-.24l-5.71,12.2-5.95-12.2h-5l10.71,23h.24l6.9-14.6v15.08h4.53V98.11Z" transform="translate(0 2.4)"/><path class="cls-4" d="M31.42,121.56H46.9v-4.79H36v-5.26H46.9v-4.79H31.42Z" transform="translate(0 2.4)"/><path class="cls-4" d="M79.51,97.15h0a12.38,12.38,0,0,1,12.38,12.68,12.53,12.53,0,0,1-12.38,12.68V117a7.23,7.23,0,0,0,7.38-7.18,7.5,7.5,0,0,0-7.38-7.66Zm0,0h0a12.58,12.58,0,0,0-12.62,12.68,12.74,12.74,0,0,0,12.62,12.68V117a7.09,7.09,0,0,1-7.38-7.18,7.35,7.35,0,0,1,7.38-7.66Z" transform="translate(0 2.4)"/><path class="cls-4" d="M60,117h0a7,7,0,0,1-6.9-7.18c0-4.3,3.09-7.66,6.9-7.66a10.41,10.41,0,0,1,6.66,2.64L69,101c-2.15-2.63-5.24-3.83-9.05-3.83a12.33,12.33,0,0,0-12.14,12.68c0,6.94,5.47,12.68,12.14,12.68A13.16,13.16,0,0,0,69,118.69l-2.39-4.31A9.32,9.32,0,0,1,60,117Z" transform="translate(0 2.4)"/><path class="cls-4" d="M120,141.9H5.48V128H120Z" transform="translate(0 2.4)"/><path class="cls-4" d="M5.48,6.22h0V79.68c14.28,6.22,34.75,10,57.13,10,22.61,0,42.85-3.83,57.37-10V6.22Z" transform="translate(0 2.4)"/><path class="cls-3" d="M70.94,49.05H68.08a23.91,23.91,0,0,1-4.52,8.38v4.31a12.06,12.06,0,0,0,2.62-2.64v16H69V54.32l.23-.48A28.22,28.22,0,0,0,70.94,49.05Z" transform="translate(0 2.4)"/><path class="cls-3" d="M34.76,51.45H29.52v3.34h2.86c.23,0,.23,0,.23.48V67c0,.24,0,.24-.23.24H29.52v3.59h5.24c.71,0,1-.48,1-1.2V52.4C35.71,51.69,35.47,51.45,34.76,51.45Zm-5.24,0h0v3.34h-3.1V67.24h3.1v3.59h-3.1v4.55H22.85V70.83H19.76V67.24h3.09V54.79H19.76V51.45h3.09V48.1h3.57v3.35Zm-9.76,0H14.28c-.47,0-.71.24-.71.95V69.63c0,.72.24,1.2.71,1.2h5.48V67.24H16.9c-.47,0-.47,0-.47-.24V55.27c0-.48,0-.48.47-.48h2.86Z" transform="translate(0 2.4)"/><path class="cls-3" d="M61.89,67.24h0v2.87h-4v.24a7.06,7.06,0,0,0,2.62,1.44h.23v3.59h-.23c-2.86-.72-5.48-2.64-6.19-5.27H50.47V67.24h2.62V64.61a3.61,3.61,0,0,1-2.62,1V63.41a1.7,1.7,0,0,0,1.66-1.91,1.63,1.63,0,0,0-1.66-1.68V57.67a3.61,3.61,0,0,1,2.62.95V55.75H50.47V53.6h2.62v-.24c0-.72,0-1.44-.48-1.67,0-.24-.24-.24-1-.24H50.47V48.57h2.62c1.19,0,2.14,1,2.14,2.88V67.24h2.86V64.37H56.18V60.78h1.91V57.91H56.18V54.56h1.91V52.4a.24.24,0,0,0-.24-.24H56.18V48.81H60c.71,0,.95.24.95.72V67.24ZM50.47,48.57H47.85c-1.43,0-2.38,1-2.38,2.88V67.24H42.85V64.37h1.91V60.78H42.85V57.91h1.91V54.56H42.85V52.4c0-.24,0-.48.24-.48h1.67V48.81H41c-.72,0-1,.24-1,.72V67.24H38.8v2.87h4.29c0,.24,0,.24-.24.24a21.63,21.63,0,0,1-2.38,1.44h-.24v3.82l.48-.23c2.62-.72,5.24-2.88,5.71-5.27h4V67.24H47.85V64.61a3.06,3.06,0,0,0,2.38,1h.24V63.41h-.24a1.71,1.71,0,0,1-1.67-1.91,1.64,1.64,0,0,1,1.67-1.68h.24V57.67h-.24a4.06,4.06,0,0,0-2.38.71V55.75h2.62V53.6H47.85v-.24c0-.72,0-1.44.24-1.67s.47-.24.95-.24h1.43Z" transform="translate(0 2.4)"/><path class="cls-3" d="M86.89,71.07h0v4.06l-.47-.24a14.65,14.65,0,0,1-5.24-9.33h-1v9.57H78.56V57h4a.24.24,0,0,0,.24-.24V52.4a.24.24,0,0,0-.24-.24h-4V48.81H85c.72,0,1,.24,1,1V59.1a1,1,0,0,1-1,1H80.22v2.15h6.43v3.35H83.79A10.48,10.48,0,0,0,86.89,71.07ZM78.56,48.81H72.37c-.48,0-.71.24-.71,1V59.1c0,.48.23.72.71,1h4.76v2.15H70.47v3.35h2.85a8.11,8.11,0,0,1-3.09,5.51v4.06l.47-.24a15,15,0,0,0,5.48-9.33h.95v9.57h1.43V57H75c-.24,0-.24,0-.24-.24V52.16h3.81Z" transform="translate(0 2.4)"/><path class="cls-3" d="M106.65,50.25h0c2.38,3.35,5,3.11,5,3.11v2.87a3.75,3.75,0,0,1-2.14-.24V59.1h-7.62v4.31h7.62v3.35h-7.62v4.79h8.81v3.34H100.22V56h8.57a10.3,10.3,0,0,1-4.28-2.87c-1-1.2-1.19-1.2-2.14-1.2h-2.15V48.57h3.34C104.51,48.57,105.46,49.29,106.65,50.25Zm-6.43-1.68H96.65c-.71,0-1.67.72-2.86,1.68a6.84,6.84,0,0,1-5.23,3.11v2.87A4.62,4.62,0,0,0,90.94,56V59.1h7.61v4.31H90.94v3.35h7.61v4.79h-8.8v3.34h10.47V56H91.65a10.38,10.38,0,0,0,4.29-2.87c1-1.2,1.19-1.2,2.14-1.2h2.14Z" transform="translate(0 2.4)"/><path class="cls-5" d="M261.86,64.13H244.25v-6.7h-7.62v6.7H219c-1.43,0-1.9.71-1.9,2.15v36.37c0,1.44.47,2.16,1.9,2.16h17.62v9.57h7.62v-9.57h17.61c1.19,0,1.91-.72,1.91-2.16V66.28C263.77,64.84,263.05,64.13,261.86,64.13ZM236.63,97.87H224c-.48-.24-.71-.48-.71-1V72.26c0-.71.23-1,.71-1h12.62Zm20.95-1h0a.88.88,0,0,1-.95,1H244.25V71.31h12.38c.71,0,.95.24.95,1Z" transform="translate(0 2.4)"/><path class="cls-5" d="M285.43,59.34h-6.19v.24c-2.14,9.09-9.52,17.47-9.52,17.47v9.57A54,54,0,0,0,275,80.4v34h6.66V70.11l.24-.48A92.7,92.7,0,0,0,285.43,59.34Z" transform="translate(0 2.4)"/><path class="cls-5" d="M318,105.76h0A21.13,21.13,0,0,1,311.62,94H318v-6.7H304V82.55h10.23a1.88,1.88,0,0,0,1.91-1.91V61a1.69,1.69,0,0,0-1.91-1.68H288.29c-1,0-1.43.48-1.43,1.68V80.64c0,1.2.47,1.91,1.43,1.91h9.52v4.79H284.24V94h6.19A22.65,22.65,0,0,1,284,105.76v7.9l.71-.48c6-4.31,9.77-10.77,11.19-19.14h1.91v20.34H304V94h1.9c1.43,8.37,5.24,14.83,11.67,19.14l.73.48v-7.9Zm-25-29.91h0V66.28a.84.84,0,0,1,.24-.48h15.95c.23,0,.23.24.23.48v9.57c0,.24,0,.48-.23.48H293.52A.52.52,0,0,1,293.05,75.85Z" transform="translate(0 2.4)"/><path class="cls-5" d="M331.62,70.11h0v7.18h-6V84h6V92.6h-6v6.94H369V92.6h-4V84h4.5v-6.7H365V68.67h4.5V61.74H337.56l1.68-4.31H332.8A18.23,18.23,0,0,1,324,68.2v7.18C325.18,74.89,329.72,72.74,331.62,70.11Zm24.28-1.2h0c0-.24,0-.24.22-.24H359c.25,0,.48,0,.48.24v8.14a.8.8,0,0,1-.48.24h-2.86c-.22,0-.22-.24-.22-.24Zm0,15.32h0c0-.24,0-.24.22-.24H359c.25,0,.48,0,.48.24v8.13a.8.8,0,0,1-.48.24h-2.86c-.22,0-.22-.24-.22-.24Zm-9.52-15.32h0c0-.24.22-.24.48-.24h2.85c.23,0,.23,0,.23.24v8.14a.23.23,0,0,1-.23.24h-2.85a.77.77,0,0,1-.48-.24Zm0,15.32h0c0-.24.22-.24.48-.24h2.85c.23,0,.23,0,.23.24v8.13a.23.23,0,0,1-.23.24h-2.85a.77.77,0,0,1-.48-.24Zm-9-15.32h0c0-.24,0-.24.22-.24h2.86c.25,0,.25,0,.25.24v8.14a.24.24,0,0,1-.25.24h-2.86c-.22,0-.22-.24-.22-.24Zm0,15.32h0c0-.24,0-.24.22-.24h2.86c.25,0,.25,0,.25.24v8.13a.24.24,0,0,1-.25.24h-2.86c-.22,0-.22-.24-.22-.24Z" transform="translate(0 2.4)"/><path class="cls-5" d="M324,107.92h0v6.46c13.33-3.83,12.6-13.16,12.6-13.16h-5.94C330.2,105.29,327.56,107.68,324,107.92Z" transform="translate(0 2.4)"/><path class="cls-5" d="M349,108.16h0c-2.85-1.44-4.5-2.87-5.71-6.94h-5.71s0,8.61,11.42,13.16Z" transform="translate(0 2.4)"/><path class="cls-5" d="M360.41,108.16h0c-2.86-1.44-4.29-2.87-5.71-6.94h-5.94s0,8.61,11.65,13.16Z" transform="translate(0 2.4)"/><path class="cls-5" d="M371.83,108.16h0c-2.6-1.44-4.28-2.87-5.46-6.94h-6s0,8.61,11.42,13.16Z" transform="translate(0 2.4)"/><path class="cls-5" d="M390.65,83.75h0c3.59-2.15,4.54-7.9,4.54-13.4V65.56l-.48-1.19c0-3.59-1.68-5-4.76-5h-10.5a2.12,2.12,0,0,0-1.91,2.16v52.88h6v-6H390c3.08,0,4.76-1.92,4.76-5l.48-1.2v-5C395.19,91.89,394.24,85.9,390.65,83.75Zm-1.43,15.79h0L389,101.7c0,.24-.25.47-.73.47h-4.76V65.32h4.76A.64.64,0,0,1,389,66V68a7.94,7.94,0,0,1,.22,2.39c0,3.59-.47,7.66-3.11,10.05a1.93,1.93,0,0,0-1.17,1.67v3.11a2.46,2.46,0,0,0,.95,1.68c2.86,2.15,3.33,5.74,3.33,9.33Z" transform="translate(0 2.4)"/><path class="cls-5" d="M423.75,107.44h0c-2.86-2.4-5.24-3.11-6.92-6.22.48-.24,5.24-2.87,5.24-2.87l-.22-6.46s-6.45,3.59-6.92,3.82a29.38,29.38,0,0,1-.95-6h6.44A2.49,2.49,0,0,0,423,87.1V61.5a2.28,2.28,0,0,0-2.13-2.16H399.47a2.08,2.08,0,0,0-1.9,2.16v46.9c0,1.67-.48,4.78,2.86,5.74,2.38.72,6.66-.24,10.69-2.87v-6.46l-.48.48c-2.85,2.63-5.45,3.11-5.93,2.87-.25-.24-.48-.72-.48-1.92V89.73h3.56c0,2.16,1.9,18.9,15.71,24.41l.25.24ZM404.23,65.8h0c0-.48.23-.48.48-.48h11.9c.22,0,.48,0,.48.48v5.27a.53.53,0,0,1-.48.48h-11.9a.51.51,0,0,1-.48-.48Zm.48,17.47h0a.51.51,0,0,1-.48-.48V78.25a.51.51,0,0,1,.48-.48h11.9a.53.53,0,0,1,.48.48v4.54a.53.53,0,0,1-.48.48Z" transform="translate(0 2.4)"/><path class="cls-4" d="M423,41.15h8.57V32.54h8.09v8.61H448v8.14h-8.35v8.62h-8.09V49.29H423Z" transform="translate(0 2.4)"/><path class="cls-4" d="M420.89,18.9h0a10.89,10.89,0,0,1,10.7,11v.48h8.09v-.48c0-10.53-8.57-19.38-18.79-19.38-10.47,0-18.81,8.85-18.81,19.38s8.34,19.38,18.56,19.38h.25V41.15c-6,0-10.72-5.26-10.72-11.24A10.76,10.76,0,0,1,420.89,18.9Z" transform="translate(0 2.4)"/><g class="cls-6"><path class="cls-4" d="M450.41,41.15h-.26v8.14h.26c5.93,0,10.69,5.27,10.69,11.25a10.71,10.71,0,1,1-21.42,0v-.48h-8.09v.48a18.82,18.82,0,1,0,37.64,0C469.23,50,460.88,41.15,450.41,41.15Z" transform="translate(0 2.4)"/></g><g class="cls-6"><path class="cls-5" d="M171.16,151.23h-.71V-2.4h.71Z" transform="translate(0 2.4)"/></g></g></g></g></svg>