<svg xmlns="http://www.w3.org/2000/svg" viewBox="0 0 502.07 186.63"><defs><style>.cls-1{fill:none;}.cls-1,.cls-2{stroke:#595757;stroke-miterlimit:10;stroke-width:0.5px;}.cls-2{fill:#ffeb00;}.cls-3{fill:#3e3a39;}</style></defs><g id="圖層_2" data-name="圖層 2"><g id="圖層_1-2" data-name="圖層 1"><polygon class="cls-1" points="16.76 45.85 16.76 67.93 9.33 67.93 9.33 99.71 0.25 99.71 1.31 185.96 84.95 184.91 84.95 21.92 48.33 21.92 48.33 45.85 16.76 45.85"/><polygon class="cls-1" points="208.25 80.98 208.25 10.75 195.25 10.78 195.25 4.58 178.95 4.58 178.95 0.46 146.34 0.46 146.34 10.78 84.95 9.73 84.95 80.98 208.25 80.98"/><polygon class="cls-1" points="84.95 107.96 206.87 107.96 206.87 143.46 194.84 143.46 194.84 185.96 84.95 184.91 84.95 107.96"/><polygon class="cls-2" points="261.62 185.84 261.62 107.96 370.02 107.96 370.02 186.37 282.12 185.96 282.12 183.07 267.77 183.07 267.77 185.75 261.62 185.84"/><polygon class="cls-1" points="257.56 5 257.56 80.98 382.38 81.25 382.38 65.04 392.31 65.04 392.31 15.11 370.44 15.11 370.44 3.97 358.88 3.97 358.88 0.25 324.01 0.25 324.01 5.62 300.28 5.62 300.85 0.25 265.41 0.46 265.41 5 257.56 5"/><polygon class="cls-1" points="433.99 65.04 382.38 65.04 382.38 81.25 355.99 81.83 355.99 107.96 370.02 107.96 370.02 186.37 487.02 185.51 487.02 155.63 482.69 146.21 467.97 146.21 467.97 128.46 458.34 128.46 458.34 106.17 454.9 106.17 454.9 93.38 433.99 93.38 433.99 65.04"/><polyline class="cls-1" points="467.97 146.21 467.97 128.46 458.34 128.46 458.34 106.17 454.9 106.17 454.9 93.38 433.99 93.38 433.99 65.04 443.48 65.04 482.57 146.26 501.67 185.96 487.02 185.51"/><polygon class="cls-1" points="208.25 10.75 257.56 10.78 257.56 80.98 355.99 81.83 355.99 107.96 261.62 107.96 261.62 185.84 253.64 185.75 253.64 181.84 194.84 181.84 194.84 143.46 206.87 143.46 206.87 107.96 84.95 107.96 84.95 80.98 208.25 80.98 208.25 10.75"/><path class="cls-3" d="M45.74,99.64H48L58.17,122.4H54.85l-3-6.7H42.18l-2.83,6.7H36Zm4.76,13.17-3.65-8.2-3.39,8.2Z"/><path class="cls-3" d="M148,58h-7.66V35.38h5.93a10.17,10.17,0,0,1,4.37.76,5.56,5.56,0,0,1,2.4,2.07,5.64,5.64,0,0,1,.82,3A4.92,4.92,0,0,1,150.37,46a7,7,0,0,1,3.94,2.05,5.31,5.31,0,0,1,1.47,3.76,5.49,5.49,0,0,1-.9,3.09,6.4,6.4,0,0,1-2.61,2.22A9.69,9.69,0,0,1,148,58Zm-1.64-19.76h-2.78v6.81h2.15a5.47,5.47,0,0,0,3.69-1,3.28,3.28,0,0,0,1.09-2.56Q150.46,38.27,146.31,38.26Zm.25,9.7h-3v7.17h3.19a10.38,10.38,0,0,0,3.61-.41,3.46,3.46,0,0,0,1.52-1.29,3.37,3.37,0,0,0,.57-1.88,3.22,3.22,0,0,0-.6-1.89,3.67,3.67,0,0,0-1.73-1.28A10.88,10.88,0,0,0,146.56,48Z"/><path class="cls-3" d="M329.31,52.77v3.56a16.88,16.88,0,0,1-8.23,2,12.76,12.76,0,0,1-6.44-1.52,11.31,11.31,0,0,1-4.18-4.2,11.48,11.48,0,0,1-1.54-5.79,11.06,11.06,0,0,1,3.53-8.31,12.13,12.13,0,0,1,8.69-3.37A20.37,20.37,0,0,1,329.06,37v3.49a15.59,15.59,0,0,0-7.76-2.27,9,9,0,0,0-6.45,2.45,8.14,8.14,0,0,0-2.57,6.15,8.06,8.06,0,0,0,2.53,6.13,9,9,0,0,0,6.46,2.4A14.72,14.72,0,0,0,329.31,52.77Z"/><path class="cls-3" d="M407.15,142.77V120.16h7.64a16.13,16.13,0,0,1,7.3,1.39,10.41,10.41,0,0,1,4.28,4.07,11.35,11.35,0,0,1,1.59,5.87,11.14,11.14,0,0,1-7.21,10.43,11.75,11.75,0,0,1-2.35.68,32,32,0,0,1-4.08.17Zm7.3-19.72h-4.06v16.83h4.15a16.76,16.76,0,0,0,3.78-.33,8.9,8.9,0,0,0,2.24-.84,7.68,7.68,0,0,0,1.65-1.26,8.4,8.4,0,0,0,2.39-6.14,7.79,7.79,0,0,0-2.46-6,8,8,0,0,0-2.08-1.41,8.6,8.6,0,0,0-2.23-.72A22.37,22.37,0,0,0,414.45,123.05Z"/><path class="cls-3" d="M310.37,133h12.84v2.88h-9.6v6.91h9.27v2.9h-9.27v7h9.9v2.88H310.37Z"/><path class="cls-3" d="M140.61,133h12.07v2.88h-8.83v6.32h8.83v2.89h-8.83v10.55h-3.24Z"/></g></g></svg>