<svg xmlns="http://www.w3.org/2000/svg" viewBox="0 0 327.67 179.04"><defs><style>.cls-1{font-size:38.51px;font-family:LinGothic-Light;font-weight:300;letter-spacing:0.15em;}.cls-1,.cls-2{fill:#fff;}</style></defs><g id="圖層_2" data-name="圖層 2"><g id="圖層_1-2" data-name="圖層 1"><text class="cls-1" transform="translate(52.62 172.52) scale(1 0.85)">德國洗碗機</text><path class="cls-2" d="M20.81,64.77h0"/><path class="cls-2" d="M44.3,81h0M77.38,25.77h0ZM56.29,5.27h0a.71.71,0,0,1-.08-.67.71.71,0,0,0,.08.67m21.08,20.5h0m-.25,1.95a.84.84,0,0,1-.76-.68A.84.84,0,0,0,77.12,27.72ZM64.28,14.64h0l.44-.57-.44.57M7.47,28.86h0M7.18,53.07Zm-1.7-6.91h0M38.72,5.26a2,2,0,0,0-1.28.29h0a2,2,0,0,1,1.28-.29M36.89,75.78c-.52-.42-1.13-.25-1.71-.27l-.29,0A25.67,25.67,0,0,1,29.4,74c-.26-.08-.5-.26-.8-.16l-.17-.07a31.38,31.38,0,0,1-4.11-1.93c-1.25-.21-1.89-1.52-3.13-1.75a10.32,10.32,0,0,1-2.59-2.25h-.26l-.17-.07c-1.25-.57-1.67-2-2.82-2.73a.6.6,0,0,0-.15-.09,4,4,0,0,1-1.37-1.64.88.88,0,0,1-.05-.15c-.51,0-.44-.69-.87-.82L9.55,57A39.38,39.38,0,0,1,5.84,44.61l-.07-.47a40.75,40.75,0,0,1,2-14.91l0-.07A36.6,36.6,0,0,1,19.91,12.77a38.38,38.38,0,0,1,8.42-4.69l0,0,0,0h0A38.79,38.79,0,0,1,39.45,5.82h2.29l1.5.06h.41a2.33,2.33,0,0,0,1.51.21l.77.1.7.15,3.27.74s0,0,0,0H50a46.17,46.17,0,0,1,9.94,4.84l.13.11,4.21,3.59,2.86,3.17,3.11,4.48a.44.44,0,0,1,.08.11c.92,2,1.83,4.06,2.75,6.08l0,.14,1.5,5.89c0,.5-.15,1,.23,1.45h0l.06,1.7v4.88A34.49,34.49,0,0,1,45,75.54a.59.59,0,0,0-.19,0c-.11,0-.22.11-.33.15h-.1l-.09.06h-.24l-1.17,0H42a7.53,7.53,0,0,1-2.55,0l-.89,0a2.4,2.4,0,0,1-1.69,0m-20-65.33A16.87,16.87,0,0,1,21.53,7a16.87,16.87,0,0,0-4.62,3.41M46,80.09h0M80.82,42.87a37.92,37.92,0,0,0-.61-8.51,14.7,14.7,0,0,0-.85-4c0-1-.7-1.87-.87-2.87a6.23,6.23,0,0,0-.77-2,34.44,34.44,0,0,0-8.28-12.72,11.2,11.2,0,0,0-2.29-2.27c-.67-1.2-2.07-1.57-2.93-2.55C63,6.5,61.17,6,59.73,4.94,58,3.81,55.88,3.4,54.07,2.37c-2.08-1-4.45-1-6.6-1.78A6.21,6.21,0,0,0,45,.35c-1.24-.51-2.53-.19-3.8-.24a1,1,0,0,0-.86,0A34.67,34.67,0,0,0,26,2.75C13.11,8.1,4.81,17.64,1.13,31.22A24.42,24.42,0,0,0,.07,39.81v4.61c.08.7-.12,1.43.27,2.09a23.54,23.54,0,0,0,1.43,6.58A22.87,22.87,0,0,0,4.59,60a20.92,20.92,0,0,0,3.18,5.19,17.28,17.28,0,0,0,2.85,3.47A16,16,0,0,0,14,71.88a17.56,17.56,0,0,0,3.73,2.85,21.74,21.74,0,0,0,5.45,3.08,33.63,33.63,0,0,0,11.15,3.4l1.33.1a1,1,0,0,0,.08.23,1.3,1.3,0,0,1,.64-.32h0l.5,0h0a3.62,3.62,0,0,1,1.14.06,2.32,2.32,0,0,1,.44.16.41.41,0,0,1,.14.19H43c.84-.08,1.71.2,2.51-.24l1.39-.14a8.67,8.67,0,0,0,3.47-.79l.13,0,.13-.07a20.11,20.11,0,0,0,6.32-2.27,10.94,10.94,0,0,0,3.48-1.7,20,20,0,0,0,4.74-3.21A30.46,30.46,0,0,0,72.28,66a7,7,0,0,0,1.44-2,12.68,12.68,0,0,0,2-3.23,24.1,24.1,0,0,0,3.45-8.89c.94-1.51.83-3.27,1.16-4.93l0-.53a5.22,5.22,0,0,0,.27-2.54c.32-.3.22-.7.23-1.07"/><path class="cls-2" d="M55.39,66.57h0l.21-.15-.21.15h0M11.78,43h0M53.14,53.06h0q0,6.18,0,12.36,0-6.18,0-12.36m4-30.76h0m-29.92,25h0M18.1,45.8h0c-.12-.84-.23-1.68-.35-2.52v0c-.25,0-.36.08-.38.21,0-.13.13-.21.38-.21,0-.09,0-.18,0-.27v0a30.7,30.7,0,0,1,.58-7.41h0s0,0,0,0a26.6,26.6,0,0,1,3.06-7.24c.12-.19.24-.38.38-.56q0,12.21.06,24.44c0,.57.3,1.25-.3,1.73l-.2-.28-.22-.33L20.93,53A34.71,34.71,0,0,1,18.1,45.8m45.64-1c0-.17,0-.33,0-.5,0,.17,0,.33,0,.5m-1.83-11,1,4.28c0,.36,0,.73.07,1.1.05.94.11,1.88.17,2.83-.43.76-.16,1.61-.28,2.41a32.75,32.75,0,0,1-2.57,7.84q-.45.93-.93,1.86l-.19.37c.17.24-.28.88.22.9-.18.39-.4.76-.61,1.12s-.33.55-.48.83l.24-1.19h0c-.15-9.63-.07-19.26,0-28.9a.36.36,0,0,1,.15-.11s0,0,0,0h.11l.2,0,.19.32a34.76,34.76,0,0,1,2.75,6.17.61.61,0,0,0,0,.12m-33,12.93-.19-.32c0-3.71-.07-7.43-.1-11.15v0c2,0,4-.1,6-.09q8.72,0,17.44.07h0c0,3.73.14,7.47-.1,11.2,0,.06,0,.12.08.19-.21.41-.58.25-.89.25H31.88a1.25,1.25,0,0,1-.69-.12H28.9m28.51,4h0a.39.39,0,0,1,.18.16.39.39,0,0,0-.18-.16h0M24.5,60.24s0-.09,0-.13,0,.09,0,.13m27.56,3.45a6.8,6.8,0,0,0,.21,2.94,1.22,1.22,0,0,0,1.44.83c.69.46,1.2,0,1.72-.35a8.5,8.5,0,0,0,2.33-1.65,27.71,27.71,0,0,0,9.37-12.11,9.32,9.32,0,0,0,1.11-2.89A17.06,17.06,0,0,0,69.09,47c0-.37,0-.74,0-1.12a21.55,21.55,0,0,0,0-10.13,2.86,2.86,0,0,0-.31-1.41,23.2,23.2,0,0,0-3.09-8.65A19.67,19.67,0,0,0,61,19.34c-.17-.88-1.08-1.08-1.54-1.69-.42-1-1.55-1.08-2.23-1.74-.36-.8-1.39-.71-1.83-1.4a1.77,1.77,0,0,0-2.5.24,1,1,0,0,0-.6,1.07h0c-.32.43-.18.92-.19,1.39C52,20.91,52,24.6,52,28.29l-22.53.05-.76-.06c0-.8-.09-1.62-.09-2.43,0-3.29,0-6.6,0-9.9a2,2,0,0,0-.6-1.43c-.35-.57-.87-.3-1.34-.3a2,2,0,0,0-1.16.49A30.58,30.58,0,0,0,11.62,34.94a21.24,21.24,0,0,0-.43,8.66,10.67,10.67,0,0,0,.34,3.13,20.27,20.27,0,0,0,2.24,6.93,7.81,7.81,0,0,0,1.69,3.19A20,20,0,0,0,20,62.61l.9,1,.12.1.93.79c.11.11.24.22.36.32l.57.28c.95.7,1.85,1.46,2.85,2.07s1.82.76,2.53-.35a2.69,2.69,0,0,0,.37-1.92c0-3.49,0-7-.08-10.48,0-.86.19-1.13,1.09-1.13,7.45.05,14.89,0,22.34.06,0,3.43,0,6.87.05,10.3"/><path class="cls-2" d="M50.43,46.72a2.72,2.72,0,0,0,1.21-.11l-6.06,0L35,46.72c5.14,0,10.28,0,15.41,0"/><path class="cls-2" d="M108.83,25.24c.11-.32.38-.38.68-.38h9.59a.27.27,0,0,1,.22.1c0,.05,0,.16-.06.24,2.76,1.1,3.88,2.54,3.9,5A4.68,4.68,0,0,1,118.52,35c-2.9,0-5.79,0-8.67,0-.74,0-1.12-.1-1.1-1,.07-2.91.06-5.83.08-8.74m16,25.07a4.93,4.93,0,0,1-5.12,5.3c-1.66,0-3.32,0-5,0s-3.33,0-5,0c-.77,0-1-.25-1-1,0-2.78,0-5.56,0-8.34,0-.84.29-1,1.07-1,3.22,0,6.45,0,9.68,0a5,5,0,0,1,5.3,5M96.24,66.22a1.46,1.46,0,0,0,.05-.2c0-4,0-8,0-12.08q0-18.7,0-37.39V15.13h.28V66H121.7c.55,0,1.15-.21,1.63.26a16.35,16.35,0,0,0,10.84-4.42,13.23,13.23,0,0,0-1-20.71c-.86-.65-1.88-1-2.87-1.61.67-.52,1.24-.93,1.78-1.38a11.11,11.11,0,0,0,4.21-10c-.74-8.18-6-13.34-14.17-13.6s-16.44-.06-24.66-.14c-1.25,0-1.45.42-1.44,1.56q0,24.44,0,48.89c0,.45-.2,1,.18,1.36"/><path class="cls-2" d="M157.4,31a9.82,9.82,0,0,1,14.15-3.2c3.08,2.12,4.42,5.4,5.11,9a14.31,14.31,0,0,1,.34,3.58c-.15,3.07-.49,6.13-2.09,8.84-4.36,7.38-13.66,7.51-17.78,0A17.41,17.41,0,0,1,157.4,31m24.39,29.91c5.76-5.38,7.73-12.45,8-20.21,0-.63,0-1.35-.12-2.06-.53-6.18-2-12-6.14-16.83a22.8,22.8,0,0,0-38.36,4.85c-3.95,8.49-3.94,17.23-.5,26.08,5.25,13.47,23.91,20.5,37.12,8.17"/><path class="cls-2" d="M299,61.09c0-.13,0-.27,0-.4a.79.79,0,0,0,0,.4"/><path class="cls-2" d="M299.1,57.12c0-.12,0-.24,0-.36,0,.12,0,.24,0,.36"/><path class="cls-2" d="M298.83,32.08c0-5.39,0-10.79,0-16.18,0-.47.31-1.05-.26-1.43-.41.5-1,.29-1.47.3-3.32,0-6.65,0-10,0-1,0-1.43.19-1.42,1.33q0,24.3,0,48.59c0,1.11.37,1.37,1.39,1.35,3.33,0,6.65,0,10,0,.5,0,1.06-.19,1.48.27.62-.36.28-1,.28-1.41,0-5.93,0-11.87,0-17.8,0-1,.24-1.31,1.26-1.29,4.41.05,8.82.06,13.23,0,1.11,0,1.33.36,1.32,1.39,0,6.37,0,12.74,0,19.1a.85.85,0,0,0,.22,0,.78.78,0,0,1,0-.21V46.23h.41c.09,6.6.39,13.19-.17,19.79h12.55c0-16.52,0-33,0-49.55,0-1.42-.44-1.75-1.77-1.71-3.61.08-7.22,0-10.82,0,0,5.7,0,11.4,0,17.1,0,.53.28,1.17-.34,1.58h0l-.22,0c-5.13.39-10.27.21-15.41.09-.56-.39-.26-1-.26-1.43"/><path class="cls-2" d="M192.39,58.87c1.54,1.19,3.05,2.42,4.58,3.63a47,47,0,0,0,8.09,3.74.11.11,0,0,1,.17.06,36.42,36.42,0,0,0,9.54,1,22.17,22.17,0,0,0,12.15-4.15c.37-.37.73-.75,1.11-1.1,6.81-6.19,7-19.29-2.89-24.4a36.57,36.57,0,0,0-9.61-3c-2.27-.47-4.61-.75-6.63-2a4.06,4.06,0,0,1,.11-7.08,8.11,8.11,0,0,1,4.92-1.05,18,18,0,0,1,9,3.7c.84.61,1.26.55,1.93-.24,1.93-2.24,4-4.41,6-6.55.55-.59.59-.87-.07-1.43a29.18,29.18,0,0,0-10.21-5.57c-6.39-2-12.64-2-18.54,1.58-5.4,3.26-8.57,8-8,14.47.57,6.91,4.64,11.31,11,13.6a69.94,69.94,0,0,0,9.25,2.33c.51.11,1,.22,1.52.36,2.74.72,4.15,2.49,4,5-.15,2.14-2.33,4.14-4.8,4.37a12.81,12.81,0,0,1-5.87-.85,32.33,32.33,0,0,1-8.39-5.1c-.46-.37-.78-.68-1.36,0-2.3,2.56-4.65,5.07-7,7.55-.5.53-.47.8.07,1.22"/><path class="cls-2" d="M263.44,67.47l.47-.07a2.92,2.92,0,0,1,1.51-.26,35,35,0,0,0,7.4-2.87l1.74-1.13a27.19,27.19,0,0,0,5.48-5.8c.49-.75.5-1.13-.31-1.65-2.84-1.82-5.67-3.68-8.43-5.62-1-.7-1.46-.75-2.23.38a9.84,9.84,0,0,1-15.83.78c-3.78-4.5-4.39-9.81-3.3-15.42a11.84,11.84,0,0,1,6.58-9,8.4,8.4,0,0,1,8.69,0,9.31,9.31,0,0,1,4.15,3.8c.45.67.74.75,1.41.29,2.94-2,5.9-4,8.91-5.94.84-.54.69-.9.23-1.54-5.38-7.62-12.78-11-21.91-10.06-8.41.89-14.69,5.34-18.48,13.07-5.1,10.4-4,26.68,5.69,35.15a25.68,25.68,0,0,0,13.41,5.71c1.59.17,3.21.11,4.82.16"/><path class="cls-2" d="M297.14,14.62c-3.37,0-6.74.05-10.12,0-1.15,0-1.52.28-1.51,1.49.06,5.66,0,11.31,0,17,0,10.55,0,21.09,0,31.63,0,1.18.3,1.53,1.49,1.51,3.37-.08,6.74,0,10.11,0a2.77,2.77,0,0,1,1.4.12c-.42-.46-1-.27-1.48-.27-3.33,0-6.65,0-10,0-1,0-1.41-.24-1.4-1.35q0-24.3,0-48.59c0-1.14.41-1.35,1.42-1.33,3.32.05,6.65,0,10,0,.5,0,1.06.2,1.47-.3a2.29,2.29,0,0,1-1.39.15"/><path class="cls-2" d="M285.39,64.89c-.12-3.92.05-7.84,0-11.76-.13-10.27.08-20.55,0-30.82,0-2.11.07-4.22,0-6.32,0-1.08.37-1.54,1.5-1.53,3.2,0,6.39.06,9.59,0-3.21,0-6.41,0-9.62-.12-1.28,0-1.55.33-1.55,1.57q.07,24,0,47.91c0,.58,0,1.16,0,1.73s.2.82.81.81h.69c-1.07,0-1.39-.46-1.42-1.47"/><path class="cls-2" d="M297.12,66.17c-3.37,0-6.74-.06-10.11,0-1.19,0-1.5-.33-1.49-1.51,0-10.54,0-21.09,0-31.63,0-5.65,0-11.31,0-17,0-1.21.36-1.52,1.51-1.49,3.38.07,6.75,0,10.12,0a2.3,2.3,0,0,0,1.39-.15h-2.06c-3.19.06-6.39,0-9.59,0-1.13,0-1.52.45-1.51,1.53.05,2.11-.05,4.21,0,6.32.12,10.27-.09,20.55,0,30.82,0,3.92-.12,7.84,0,11.76,0,1,.35,1.43,1.42,1.47h0c3.9,0,7.8,0,11.7-.07a2.77,2.77,0,0,0-1.4-.12"/></g></g></svg>