<svg xmlns="http://www.w3.org/2000/svg" viewBox="0 0 412.09 176.68"><defs><style>.cls-1{font-size:38.51px;font-family:LinGothic-Light;font-weight:300;letter-spacing:0.15em;}.cls-1,.cls-2{fill:#fff;}</style></defs><g id="圖層_2" data-name="圖層 2"><g id="圖層_1-2" data-name="圖層 1"><text class="cls-1" transform="translate(28.11 170.16) scale(1 0.85)">德國恆溫淋浴龍頭</text><path class="cls-2" d="M373.45,45.47a16.07,16.07,0,0,1,5.5-8.69,14.79,14.79,0,0,1,9.48-3.18,14.06,14.06,0,0,1,9.15,3.1,16.45,16.45,0,0,1,5.35,8.77Zm38.64,6.2a33.86,33.86,0,0,0-1-8.59,23,23,0,0,0-11.58-14.83A23.09,23.09,0,0,0,371,33a24.16,24.16,0,0,0-4.88,7.73,25,25,0,0,0-1.64,9.12A25.28,25.28,0,0,0,371.33,67,22.59,22.59,0,0,0,379,72.41a23.74,23.74,0,0,0,9.36,1.81,22.35,22.35,0,0,0,13.31-4.09,26.51,26.51,0,0,0,8.91-11.8h-9.32a14.26,14.26,0,0,1-5.41,5.56,14.54,14.54,0,0,1-7.48,2,14.79,14.79,0,0,1-9.93-3.56A15.57,15.57,0,0,1,373.2,53h38.89Zm-190,9.52a13,13,0,0,1-9.75,4.53,13.45,13.45,0,0,1-10.28-4.52A15.81,15.81,0,0,1,197.89,50a15,15,0,0,1,4.19-10.75,13.47,13.47,0,0,1,10.13-4.39,13,13,0,0,1,9.94,4.62,15.88,15.88,0,0,1,4.19,11.09,15.07,15.07,0,0,1-4.23,10.61m4-27.56a20.94,20.94,0,0,0-6.69-4.81,19.45,19.45,0,0,0-7.89-1.59A21,21,0,0,0,203,28.89,20.35,20.35,0,0,0,196.07,34a22.43,22.43,0,0,0-4.47,7.32,24.9,24.9,0,0,0-1.57,8.8,23.27,23.27,0,0,0,6.25,16.59A20.66,20.66,0,0,0,212,73.36a18,18,0,0,0,7.58-1.64A19.94,19.94,0,0,0,226,66.89v.57q0,6.69-3.89,10.75a13.5,13.5,0,0,1-10.24,4.06,12.72,12.72,0,0,1-6.49-1.64,12.18,12.18,0,0,1-4.57-4.73h-8A19.31,19.31,0,0,0,200.08,86a20.91,20.91,0,0,0,12.3,3.58q9.9,0,15.57-6.53t5.67-18V28.35h-7.55ZM300.52,62a12.86,12.86,0,0,1-10,4.53A13.13,13.13,0,0,1,280.38,62a16.08,16.08,0,0,1-4.09-11.23,16.26,16.26,0,0,1,4.09-11.31,13.55,13.55,0,0,1,20.14-.05,16.17,16.17,0,0,1,4,11.28,16.35,16.35,0,0,1-4,11.29M306,33.76a22,22,0,0,0-7.24-5.22,21.27,21.27,0,0,0-8.7-1.76,19.07,19.07,0,0,0-8.42,2,23.57,23.57,0,0,0-7.31,5.63,22.55,22.55,0,0,0-4.55,7.51,25.57,25.57,0,0,0-1.53,9,25,25,0,0,0,1.69,9,24.3,24.3,0,0,0,4.7,7.74,21.74,21.74,0,0,0,7.16,5.28,21,21,0,0,0,8.7,1.79,20.13,20.13,0,0,0,8.7-2A22.49,22.49,0,0,0,306.55,67,24,24,0,0,0,311,59.31a26.37,26.37,0,0,0,1.6-9,23.75,23.75,0,0,0-1.71-8.83A24.67,24.67,0,0,0,306,33.76m33.5-8.35A17.07,17.07,0,0,0,332,27a12.82,12.82,0,0,0-5.2,4.58L327.32,0h-8.8V73h8.31V51.76a56,56,0,0,1,.4-8,13.54,13.54,0,0,1,1.34-4.25,10.52,10.52,0,0,1,9.78-6c3.54,0,6.18,1.27,7.91,3.79s2.6,6.39,2.6,11.57V73h8.3V46.17q0-9.84-4.64-15.3t-13-5.46m-88.25,7.31V27.25h-7.79V74.19h8.3V48.12c0-4.31.81-7.44,2.4-9.39s4.24-3.06,7.94-3.34V26.58A12.47,12.47,0,0,0,256,28.12a14.26,14.26,0,0,0-4.71,4.6M21,25.41A17,17,0,0,0,13.52,27a12.79,12.79,0,0,0-5.21,4.58V0H0V73H8.31V51.76a56,56,0,0,1,.4-8,13.54,13.54,0,0,1,1.34-4.25,10.52,10.52,0,0,1,9.78-6c3.54,0,6.18,1.27,7.91,3.79s2.59,6.39,2.59,11.57V73h8.31V46.17q0-9.84-4.64-15.3T21,25.41m59.34,36.9a15.24,15.24,0,0,1-10.76,4.38,15.94,15.94,0,0,1-11.35-4.37,14.23,14.23,0,0,1-4.62-10.79,13.53,13.53,0,0,1,4.62-10.36A16,16,0,0,1,69.4,36.93a15.28,15.28,0,0,1,11,4.45A14.35,14.35,0,0,1,85,52.07a13.62,13.62,0,0,1-4.66,10.24M84.6,35.74a22,22,0,0,0-7.27-4.64,24.13,24.13,0,0,0-8.72-1.53,26.09,26.09,0,0,0-9.42,1.6,22.48,22.48,0,0,0-7.59,5A21.29,21.29,0,0,0,45,51.67a20.92,20.92,0,0,0,6.88,16q6.89,6.39,17.3,6.39A21.85,21.85,0,0,0,84.6,67.82v5.3h8.3V30.64H84.6ZM122.22,30a17.94,17.94,0,0,0-7.12,1.33,16.29,16.29,0,0,0-5.71,4.18v-4.9h-8V73.12h8.3V53.87q0-8.82,2.78-12.65t9-3.84c3.77,0,6.56,1.1,8.38,3.26s2.72,5.5,2.72,10V73.12h8.3V49q0-9.15-4.82-14T122.22,30m48.66,17.73-3.64-1.06c-5.44-1.52-8.17-3.49-8.17-5.88a4.29,4.29,0,0,1,1.83-3.52,7.1,7.1,0,0,1,4.52-1.43,8,8,0,0,1,4.81,1.33,5.09,5.09,0,0,1,2.06,3.68H182a12,12,0,0,0-4.66-9.12q-4.24-3.23-11.43-3.23a18.62,18.62,0,0,0-11.72,3.68c-3.2,2.45-4.78,5.44-4.78,8.93a10,10,0,0,0,1.43,5.39,12.87,12.87,0,0,0,4.45,4.17,38.62,38.62,0,0,0,7.65,2.75c1.48.42,2.64.76,3.44,1a12.72,12.72,0,0,1,5.15,2.66,5.17,5.17,0,0,1,1.6,3.83,5.05,5.05,0,0,1-2.26,4.24,9.51,9.51,0,0,1-5.78,1.66,9,9,0,0,1-6.21-2.21A7.18,7.18,0,0,1,156.4,59h-9.5a15.15,15.15,0,0,0,5.29,11.11q4.81,4.06,12.62,4.07t12.87-3.85a11.66,11.66,0,0,0,5.13-9.66,11.36,11.36,0,0,0-2.74-8c-1.82-2-4.89-3.66-9.19-5"/></g></g></svg>