<svg xmlns="http://www.w3.org/2000/svg" viewBox="0 0 400.35 168.25"><defs><style>.cls-1,.cls-2{fill:#fff;}.cls-2{font-size:38.51px;font-family:LinGothic-Light;font-weight:300;letter-spacing:0.15em;}</style></defs><g id="圖層_2" data-name="圖層 2"><g id="圖層_1-2" data-name="圖層 1"><path class="cls-1" d="M169.51,20.7c0,3.81,0,7.42,0,11,0,4.72,0,9.44,0,14.16,0,2.46,0,4.92.06,7.38,0,.59-.14.81-.77.81-3.39,0-6.77,0-10.16,0-.59,0-.73-.18-.73-.75Q158,27.67,158,2c0-.54.17-.69.7-.68,4.08,0,8.16,0,12.24,0a1,1,0,0,1,1.05.66q8.16,15.25,16.35,30.49c.35.66.71,1.3,1.06,1.95.26-.07.17-.26.17-.39q0-8.88,0-17.77,0-7.08-.12-14.16c0-.6.15-.78.77-.78,3.36,0,6.72,0,10.08,0,.7,0,.84.21.84.87q0,23.16,0,46.33c0,1.61,0,3.23,0,4.84,0,.53-.16.72-.7.72H188a.89.89,0,0,1-.88-.58q-5-9.39-10-18.78-3.57-6.67-7.16-13.35C169.8,21.19,169.69,21,169.51,20.7Z"/><path class="cls-1" d="M375.75,54.54c-1.71,0-4.09-.16-6.48,0-.49,0-.65-.32-.84-.66l-6.21-11.16q-1.23-2.22-2.47-4.43c-.12-.22-.18-.56-.45-.58s-.34.34-.45.54c-2.83,5.06-5.66,10.12-8.44,15.21a1.86,1.86,0,0,1-1.88,1.1c-2.41,0-4.82-.07-7.23-.08-2.07,0-4.15,0-6.22,0-.2,0-.46.12-.58-.08s.11-.43.22-.61q2.4-4,4.82-8c3.65-6,7.29-12.08,11-18.1a1.62,1.62,0,0,0,0-1.94c-4.85-8-9.65-16.1-14.49-24.15-.36-.6-.21-.73.41-.73q6.93,0,13.85,0a1,1,0,0,1,1,.59q3.76,6.79,7.56,13.58l.18.34c.26.55.49.58.79,0,.8-1.49,1.62-3,2.44-4.45,1.71-3.13,3.44-6.25,5.14-9.38A1.16,1.16,0,0,1,368.57.9h13.54c.77,0,.84.13.45.78l-8.77,14.66q-2.94,4.92-5.9,9.83a1,1,0,0,0,.06,1.2l11.78,19.48c1.38,2.29,2.77,4.57,4.14,6.85.13.21.41.43.27.68s-.47.12-.71.11C381.09,54.45,378.76,54.44,375.75,54.54Z"/><path class="cls-1" d="M29.23,22.64q1.64-2.46,3.26-4.92Q37.66,9.86,42.84,2a1.29,1.29,0,0,1,1.24-.67c4.41,0,8.82,0,13.24,0a.9.9,0,0,1,.72.14L55.4,5.22Q48.05,15.62,40.68,26a1.05,1.05,0,0,0,0,1.45q9.15,13.1,18.87,25.76c.17.23.56.45.4.75s-.57.11-.87.11c-4.51,0-9,0-13.54,0a2.58,2.58,0,0,1-2.39-1.23c-4.36-6-8.54-12.11-12.62-18.3l-1.3-2a1.2,1.2,0,0,0-.17.87q0,9.78,0,19.55c0,1,0,1-1,1-3.67,0-7.34,0-11,0-.61,0-.83-.14-.83-.8q0-25.56,0-51.11c0-.65.12-.87.83-.86,3.72,0,7.44,0,11.16,0,.69,0,.91.17.91.89,0,6.54,0,13.08,0,19.62v.76Z"/><path class="cls-1" d="M299,27.65V2c0-1.1,0-1.12,1.11-1.11,5.72,0,11.44,0,17.16,0,3.88,0,7.75,0,11.62-.06a1.45,1.45,0,0,1,1.43.79c1.94,3.26,3.92,6.5,5.89,9.74.3.49.23.69-.36.67-.33,0-.66,0-1,0l-20.7,0c-.23,0-.46,0-.69,0-.61,0-.79.24-.78.83,0,2.51,0,5,0,7.54,0,.74.25,1,1,1,5.38,0,10.77,0,16.16,0,.75,0,.95.21.94.95,0,2.95,0,5.9,0,8.85,0,1,0,1-1,1H313.91c-1.24,0-1.24,0-1.24,1.27v8.7c0,1.08,0,1.08,1.12,1.08l20.47,0c.28,0,.68-.16.84.16s-.17.51-.32.74L329,53.88a1,1,0,0,1-.94.62q-14,0-28.09,0c-.8,0-1-.23-1-1Q299,40.57,299,27.65Z"/><path class="cls-1" d="M280.81,33.62V53.47c0,1.13,0,1.13-1.08,1.13H268.26c-1,0-1,0-1-1V13.78c0-1.2,0-1.2-1.23-1.2-3.67,0-7.33,0-11,0-.74,0-1-.17-1-1,0-3.18,0-6.36,0-9.54,0-.68.2-.95.92-.94q19.11,0,38.24,0c.69,0,.94.22.94.93,0,3.3,0,6.61,0,9.91,0,.66-.38.61-.8.61H282.39c-1.72,0-1.57-.14-1.58,1.58Z"/><path class="cls-1" d="M152.08,24.09a45.4,45.4,0,0,0-1.51-11.17c-1.81-6.37-5.83-10.47-12.32-12a37.14,37.14,0,0,0-15-.28A18.63,18.63,0,0,0,115,4.11a17.31,17.31,0,0,0-6,9.26,49.4,49.4,0,0,0-1.56,14.53c0,1.05,0,2.1,0,3.15A45.14,45.14,0,0,0,109,42.67c1.8,6.13,5.7,10.17,12,11.7a36,36,0,0,0,16.38.11,16.89,16.89,0,0,0,8.94-4.8c3.22-3.42,4.5-7.68,5.21-12.17A71.71,71.71,0,0,0,152.08,24.09ZM138.87,34.53a16.09,16.09,0,0,1-1.74,6.32c-1.74,3.2-4.75,4.32-8.14,4.12-4.88-.27-7.05-3.48-8-7.87a47.21,47.21,0,0,1-.59-9.43A47.2,47.2,0,0,1,121,18.4a15.26,15.26,0,0,1,1.09-3.35c1.67-3.56,4.67-4.92,8.39-4.72,4.72.25,6.93,3.29,7.91,7.48A23.59,23.59,0,0,1,139,23.3C139,27,139.21,30.79,138.87,34.53Z"/><path class="cls-1" d="M251.69,25.47c-.14-4.54-.41-9.06-1.84-13.42C248.1,6.69,244.68,3,239.21,1.34A34.87,34.87,0,0,0,221.27,1a16.11,16.11,0,0,0-10,6.53,22.55,22.55,0,0,0-3.44,8.81A64.54,64.54,0,0,0,207,30.44a50.4,50.4,0,0,0,1.34,11.27C210,48.53,214.14,53,221.12,54.52a37.32,37.32,0,0,0,14.13.31,19.23,19.23,0,0,0,8.64-3.42,17.47,17.47,0,0,0,6.26-9.69,51.8,51.8,0,0,0,1.54-14.25C251.69,26.81,251.71,26.14,251.69,25.47Zm-13.53,11a15.22,15.22,0,0,1-1.1,3.67c-1.68,3.65-4.62,5.12-8.46,4.84-4.5-.33-6.87-2.67-8-7.58a26.33,26.33,0,0,1-.6-5.8,86.39,86.39,0,0,1,.28-11.6,16.2,16.2,0,0,1,1.36-5c1.69-3.6,4.78-4.9,8.39-4.71,4.82.27,7,3.51,7.95,7.73a44.69,44.69,0,0,1,.6,9.79A44.86,44.86,0,0,1,238.16,36.45Z"/><path class="cls-1" d="M105.28,53.41c-2.64-5.95-5.26-11.91-7.91-17.85a9.63,9.63,0,0,0-4.4-5c.53-.23,1-.39,1.38-.59a14.47,14.47,0,0,0,7.86-8,16.09,16.09,0,0,0,.63-8.25,12.6,12.6,0,0,0-6.7-9.76A23.34,23.34,0,0,0,85.31,1.38c-6.92-.11-13.85,0-20.78-.06-.52,0-.63.18-.63.67q0,25.7,0,51.4c0,.55.2.69.72.68q5.73,0,11.46,0c.6,0,.74-.22.72-.78,0-1.35,0-2.71,0-4.07,0-4.54,0-9.08,0-13.62,0-.68.19-.91.87-.86.84,0,1.69,0,2.54,0a4,4,0,0,1,3.31,1.65A10.38,10.38,0,0,1,84.87,39l5.7,14.36c.17.41.3.75.89.75,4.46,0,8.93,0,13.39,0C105.41,54.07,105.52,53.94,105.28,53.41ZM87.86,23.15a7.6,7.6,0,0,1-4.58,1.57c-1.92.08-3.85,0-5.77.07-.58,0-.75-.2-.74-.76,0-2,0-4,0-6V12.18c0-.36-.06-.76.5-.75a59.11,59.11,0,0,1,7.76.2c3.19.5,4.87,2.36,5.07,5.6C90.25,19.54,89.78,21.63,87.86,23.15Z"/><text class="cls-2" transform="translate(0 161.73) scale(1 0.85)">德國太格精工木地板</text></g></g></svg>