<svg xmlns="http://www.w3.org/2000/svg" xmlns:xlink="http://www.w3.org/1999/xlink" viewBox="0 0 422.5 159.15"><defs><style>.cls-1{font-size:48.72px;fill:#727171;font-family:DFLiHei-Bd-HK-BF, DFPLiHei-Bd;letter-spacing:0.15em;}.cls-2{fill:none;}.cls-3{fill:url(#未命名漸層_46);}.cls-4{fill:url(#未命名漸層_46-2);}.cls-5{fill:url(#未命名漸層_46-3);}.cls-6{fill:url(#未命名漸層_46-4);}.cls-7{fill:url(#未命名漸層_46-5);}.cls-8{fill:url(#未命名漸層_46-6);}.cls-9{fill:url(#未命名漸層_46-7);}.cls-10{fill:url(#未命名漸層_46-8);}.cls-11{fill:url(#未命名漸層_46-9);}.cls-12{fill:url(#未命名漸層_46-10);}</style><linearGradient id="未命名漸層_46" x1="-1.15" y1="28.09" x2="404.08" y2="22.53" gradientUnits="userSpaceOnUse"><stop offset="0" stop-color="#119ecc"/><stop offset="0.87" stop-color="#fbff00"/></linearGradient><linearGradient id="未命名漸層_46-2" x1="-1.03" y1="36.63" x2="404.19" y2="31.08" xlink:href="#未命名漸層_46"/><linearGradient id="未命名漸層_46-3" x1="-1.02" y1="37.13" x2="404.2" y2="31.57" xlink:href="#未命名漸層_46"/><linearGradient id="未命名漸層_46-4" x1="-1.01" y1="38.02" x2="404.21" y2="32.46" xlink:href="#未命名漸層_46"/><linearGradient id="未命名漸層_46-5" x1="-1" y1="38.75" x2="404.22" y2="33.19" xlink:href="#未命名漸層_46"/><linearGradient id="未命名漸層_46-6" x1="-0.99" y1="39.42" x2="404.23" y2="33.86" xlink:href="#未命名漸層_46"/><linearGradient id="未命名漸層_46-7" x1="-0.98" y1="39.85" x2="404.24" y2="34.29" xlink:href="#未命名漸層_46"/><linearGradient id="未命名漸層_46-8" x1="-1.39" y1="10.26" x2="403.83" y2="4.7" xlink:href="#未命名漸層_46"/><linearGradient id="未命名漸層_46-9" x1="-0.97" y1="40.63" x2="404.25" y2="35.07" xlink:href="#未命名漸層_46"/><linearGradient id="未命名漸層_46-10" x1="-0.97" y1="41.17" x2="404.26" y2="35.61" xlink:href="#未命名漸層_46"/></defs><g id="圖層_2" data-name="圖層 2"><g id="圖層_1-2" data-name="圖層 1"><text class="cls-1" transform="translate(33.32 148.03) scale(0.79 0.85)">日本頂級整體廚具</text><path class="cls-2" d="M273.09,25.18a6.74,6.74,0,0,0-5.45,2.61q-2.14,2.61-2.15,8t2.13,8a6.87,6.87,0,0,0,10.72,0q2.09-2.55,2.09-8.19c0-3.51-.7-6.13-2.11-7.84A6.5,6.5,0,0,0,273.09,25.18Z"/><path class="cls-2" d="M169.73,41.19a4.06,4.06,0,0,0,0,5.86,5.19,5.19,0,0,0,3.65,1.16A9.19,9.19,0,0,0,178.05,47a7.51,7.51,0,0,0,3.08-3.07,10.63,10.63,0,0,0,.9-4.71V36.69c-2.07.76-4.23,1.44-6.48,2Q170.95,40,169.73,41.19Z"/><path class="cls-2" d="M68.44,41.19a4.06,4.06,0,0,0,0,5.86,5.19,5.19,0,0,0,3.65,1.16A9.19,9.19,0,0,0,76.76,47a7.51,7.51,0,0,0,3.08-3.07,10.63,10.63,0,0,0,.9-4.71V36.69c-2.07.76-4.23,1.44-6.48,2C71.2,39.55,69.25,40.38,68.44,41.19Z"/><path class="cls-2" d="M21.65,11.37H16.87V23.84H21c3.24,0,5.52-.58,6.82-1.74a5.64,5.64,0,0,0,2-4.44,6.32,6.32,0,0,0-1.7-4.46Q26.36,11.37,21.65,11.37Z"/><path class="cls-3" d="M27.92,0H0V55.91H16.87V35.16h9.19q10.17,0,15.11-4.76t4.95-13.24q0-8.23-4.54-12.69T27.92,0ZM27.8,22.1c-1.3,1.16-3.58,1.74-6.82,1.74H16.87V11.37h4.78q4.71,0,6.42,1.83a6.32,6.32,0,0,1,1.7,4.46A5.64,5.64,0,0,1,27.8,22.1Z"/><path class="cls-4" d="M95.5,47.29V29.41a18.06,18.06,0,0,0-1.11-6,11.36,11.36,0,0,0-3-4.86,13.79,13.79,0,0,0-6.86-3.26,59.76,59.76,0,0,0-10.9-.79,45,45,0,0,0-7.86.65A18.68,18.68,0,0,0,60,17a13.17,13.17,0,0,0-4.43,3.88A16.86,16.86,0,0,0,53.24,27l14.42,1.56A6.69,6.69,0,0,1,70,24.94a10.21,10.21,0,0,1,5.56-1.22c1.92,0,3.27.38,4,1.15s1.14,2.1,1.14,4a48,48,0,0,1-5.33,1.85q-2.52.71-11,2.46-7.1,1.45-9.71,4.43a11,11,0,0,0-2.64,7.59,10.79,10.79,0,0,0,3.66,8.27q3.65,3.36,10.69,3.36a24.08,24.08,0,0,0,9.3-1.68A19.49,19.49,0,0,0,81.6,51a18.31,18.31,0,0,0,.52,2.58,14.76,14.76,0,0,0,1.11,2.38H97.39a21.13,21.13,0,0,1-1.54-4.13A22.72,22.72,0,0,1,95.5,47.29ZM80.74,39.17a10.63,10.63,0,0,1-.9,4.71A7.51,7.51,0,0,1,76.76,47a9.19,9.19,0,0,1-4.69,1.26,5.19,5.19,0,0,1-3.65-1.16,4.06,4.06,0,0,1,0-5.86c.81-.81,2.76-1.64,5.82-2.48,2.25-.58,4.41-1.26,6.48-2Z"/><path class="cls-5" d="M132.83,14.5A16.44,16.44,0,0,0,125,16.23,21.09,21.09,0,0,0,118.6,22v-6.6h-14v40.5h15.09V36.46c0-3.68.57-6.24,1.71-7.66a5.38,5.38,0,0,1,4.44-2.14,4.85,4.85,0,0,1,3.86,1.58q1.36,1.59,1.37,5.4V55.91h15.16V30.17q0-8-3.54-11.84C140.28,15.77,137,14.5,132.83,14.5Z"/><path class="cls-6" d="M196.79,47.29V29.41a18.06,18.06,0,0,0-1.11-6,11.46,11.46,0,0,0-3-4.86,13.79,13.79,0,0,0-6.86-3.26,59.84,59.84,0,0,0-10.9-.79,45,45,0,0,0-7.86.65A18.68,18.68,0,0,0,161.31,17a13.17,13.17,0,0,0-4.43,3.88A16.68,16.68,0,0,0,154.53,27L169,28.53a6.74,6.74,0,0,1,2.33-3.59,10.26,10.26,0,0,1,5.56-1.22c1.93,0,3.28.38,4,1.15s1.14,2.1,1.14,4a48,48,0,0,1-5.33,1.85q-2.52.71-11,2.46c-4.73,1-8,2.44-9.72,4.43a11,11,0,0,0-2.63,7.59A10.82,10.82,0,0,0,157,53.47q3.66,3.36,10.7,3.36a24.08,24.08,0,0,0,9.3-1.68,19.49,19.49,0,0,0,5.9-4.2,17,17,0,0,0,.52,2.58,14.76,14.76,0,0,0,1.11,2.38h14.16a21.13,21.13,0,0,1-1.54-4.13A22.72,22.72,0,0,1,196.79,47.29ZM182,39.17a10.63,10.63,0,0,1-.9,4.71A7.51,7.51,0,0,1,178.05,47a9.19,9.19,0,0,1-4.69,1.26,5.19,5.19,0,0,1-3.65-1.16,4.06,4.06,0,0,1,0-5.86q1.22-1.21,5.82-2.48c2.25-.58,4.41-1.26,6.48-2Z"/><path class="cls-7" d="M237.46,32a43,43,0,0,0-11.19-2.44c-3.32-.41-5.47-.86-6.45-1.37a2.4,2.4,0,0,1-1.49-2.25,2.79,2.79,0,0,1,1.17-2.26,6,6,0,0,1,3.73-.94,7.45,7.45,0,0,1,4.3,1.22,5.11,5.11,0,0,1,1.85,2.87l14.31-1.45A18.12,18.12,0,0,0,240,19a13.6,13.6,0,0,0-5.6-3.43c-2.24-.74-5.71-1.1-10.4-1.1a32.31,32.31,0,0,0-10.64,1.42,13.51,13.51,0,0,0-6.23,4.33,10.85,10.85,0,0,0-2.26,6.89,10.71,10.71,0,0,0,2.09,6.52,11.7,11.7,0,0,0,5.16,4.06A66.81,66.81,0,0,0,223,40.33a30.32,30.32,0,0,1,6.49,1.59,2.84,2.84,0,0,1,1.71,2.59A3,3,0,0,1,229.9,47a7.36,7.36,0,0,1-4.71,1.33,7.54,7.54,0,0,1-4.45-1.18,7.59,7.59,0,0,1-2.59-3.92l-15,1.44a14.27,14.27,0,0,0,5.87,9q4.59,3.17,15.37,3.17,7.64,0,12.07-2A14,14,0,0,0,243,49.59,12.81,12.81,0,0,0,245,42.77a11.15,11.15,0,0,0-1.95-6.36A12.4,12.4,0,0,0,237.46,32Z"/><path class="cls-8" d="M272.87,14.5q-10.35,0-16.43,6a20.58,20.58,0,0,0-6.07,15.28,20.12,20.12,0,0,0,7.19,16.09q5.85,5,15.35,5,10.63,0,16.66-6t6-15.31a20.8,20.8,0,0,0-4.85-14Q284.69,14.5,272.87,14.5Zm5.47,29.28a6.87,6.87,0,0,1-10.72,0q-2.13-2.59-2.13-8t2.15-8a6.74,6.74,0,0,1,5.45-2.61,6.5,6.5,0,0,1,5.23,2.57c1.41,1.71,2.11,4.33,2.11,7.84Q280.43,41.23,278.34,43.78Z"/><path class="cls-9" d="M331.15,14.5a16.48,16.48,0,0,0-7.86,1.73A21.09,21.09,0,0,0,316.91,22v-6.6H302.86v40.5H318V36.46c0-3.68.57-6.24,1.71-7.66a5.4,5.4,0,0,1,4.45-2.14A4.83,4.83,0,0,1,328,28.24c.92,1.06,1.37,2.86,1.37,5.4V55.91H344.5V30.17q0-8-3.55-11.84T331.15,14.5Z"/><rect class="cls-10" x="354.06" width="15.09" height="10.56"/><rect class="cls-11" x="354.06" y="15.41" width="15.09" height="40.5"/><path class="cls-12" d="M408.15,40.05a9.25,9.25,0,0,1-3,4.8,7.84,7.84,0,0,1-5,1.56,7.49,7.49,0,0,1-5.86-2.58c-1.53-1.73-2.3-4.25-2.3-7.58q0-5.59,2.32-8.35a7.52,7.52,0,0,1,6.06-2.76,7.71,7.71,0,0,1,4.73,1.31,6.84,6.84,0,0,1,2.43,3.91l14.2-1.95A18.78,18.78,0,0,0,414.62,18q-5.06-3.54-14.69-3.54a29.36,29.36,0,0,0-11.31,1.86A19.36,19.36,0,0,0,383.2,20a18.79,18.79,0,0,0-4.15,5.47A23.24,23.24,0,0,0,377,35.83a22.68,22.68,0,0,0,1.7,9.6,19.44,19.44,0,0,0,4.71,6.31,18.08,18.08,0,0,0,7.17,3.89A38.41,38.41,0,0,0,401,56.83,26.54,26.54,0,0,0,411.69,55a18.11,18.11,0,0,0,6.92-5.24,21,21,0,0,0,3.89-8Z"/></g></g></svg>