<svg id="圖層_2" data-name="圖層 2" xmlns="http://www.w3.org/2000/svg" viewBox="0 0 3364.72 1730.39"><defs><style>.cls-1{fill:#f6de00;opacity:0.17;}.cls-2{fill:#afafb0;opacity:0.28;}</style></defs><polyline class="cls-1" points="758.81 366.71 554.56 366.71 554.56 494.13 426.61 494.3 383.56 494.13 379.31 494.3 379.31 623.16 290.31 623.16 290.31 648.84 279.14 650.56 279.14 772.86 252.98 772.86 252.98 804.15 244.23 804.15 244.43 1223.59 298.31 1223.59 299.31 1235 299.81 1290.07 770.81 1290.07 770.81 780.27 770.81 368.36"/><polygon class="cls-2" points="773.11 844.3 1462.02 844.3 1462.02 1053.26 1398.75 1053.26 1397.24 1103.89 1388.2 1103.89 1389.78 1289.86 957.38 1289.86 773.11 1289.86 773.11 844.3"/><polygon class="cls-2" points="773.11 695.71 1468.1 695.71 1469.42 299 1396.77 299.08 1396.77 264.37 1306.37 264.37 1306.37 243.31 1118.48 243.31 1118.48 299.12 773.11 295.64 773.11 695.71"/><polygon class="cls-1" points="1747.47 261.01 1747.47 699.4 2463.28 699.4 2463.28 617.55 2511.7 616.41 2512.99 320.46 2390.46 320.46 2390.46 260.85 2323.13 260.85 2323.13 239.62 2124.78 239.62 2124.78 265.4 1988.38 265.4 1988.38 239.53 1793.46 239.53 1793.46 261.01 1747.47 261.01"/><polygon class="cls-2" points="2302.52 699.4 2302.52 845.4 2391.2 845.4 2391.2 1291.27 3047.15 1291.16 3049.54 1125.76 3018.42 1061.11 2942.56 1062.06 2942.56 888.61 2890.27 888.12 2890.27 831.28 2867.53 831.28 2867.53 766.48 2751.57 765.34 2751.57 606.58 2512.99 606.58 2512.99 616.41 2463.28 617.55 2463.28 699.4 2302.52 699.4"/><polygon class="cls-1" points="1767.84 851 2384.77 851 2384.77 1281.48 1773.91 1281.48 1767.84 851"/></svg>