<svg xmlns="http://www.w3.org/2000/svg" viewBox="0 0 400.35 169.84"><defs><style>.cls-1{font-size:38.51px;font-family:LinGothic-Light;font-weight:300;letter-spacing:0.15em;}.cls-1,.cls-2{fill:#fff;}</style></defs><g id="圖層_2" data-name="圖層 2"><g id="圖層_1-2" data-name="圖層 1"><text class="cls-1" transform="translate(0 163.32) scale(1 0.85)">日本大建室內靜音門</text><path class="cls-2" d="M152.07,38.8c0-6.95.14-13.9,0-20.85C151.77,7,145.1.39,134.17.25c-9.32-.12-18.65.18-28-.11-4.66-.15-3.3,2.85-3.47,5.2-.2,2.58-.39,4.77,3.6,4.61,7.92-.31,15.85-.12,23.77-.08s11.15,3.38,11.13,11.4c0,2.69-.9,3.4-3.48,3.36-7.3-.13-14.62-.21-21.91,0-11.4.39-17.87,7.63-17.73,19.4.14,11.45,6.78,18.4,18.08,18.57,10.72.16,21.45-.09,32.16.13,3.32.07,3.84-1.25,3.77-4.06-.15-6.63,0-13.28-.05-19.91M138.5,52.57c-3.73-.1-7.47,0-11.2,0-3.42,0-6.85.12-10.27,0-4.71-.21-7.44-3.57-7.45-8.87s2.71-8.75,7.45-8.87c7.15-.19,14.31,0,21.46-.09,2,0,2.75.71,2.7,2.7-.09,4.17-.1,8.34,0,12.52.05,2-.7,2.73-2.7,2.68"/><path class="cls-2" d="M67.15.15C59.37.14,51.59.27,43.82.09,40.93,0,40.11,1,40.16,3.78c.16,9.27.06,18.54.06,27.81,0,9,.18,17.93-.09,26.89-.12,3.6,1.08,4.39,4.47,4.29,8.23-.24,16.48,0,24.73-.09,11.41-.06,19.5-5.83,23.19-16.59a45.33,45.33,0,0,0,1.22-24.7C90.55,6.67,82.29.18,67.15.15M81.41,43.23c-1.88,6.18-6.17,9.51-12.68,9.73-4.81.16-9.64,0-14.45.11-2.34.07-2.91-.94-2.88-3,.09-6.33,0-12.66,0-19,0-5.87.14-11.74-.06-17.6-.1-2.9.91-3.76,3.73-3.63,4.5.21,9-.05,13.53.1,6.41.2,10.59,3.15,12.59,9.18a39.15,39.15,0,0,1,.19,24.15"/><path class="cls-2" d="M249.24,34.61c9.63.13,19.27-.11,28.9.12,4.81.11,3.12-3.17,3.23-5.37s1.12-5.06-3.24-4.9c-7.45.29-14.91.08-22.37.08-10.36,0-10.24,0-10.28-10.44,0-3.17.79-4.27,4.12-4.19,9.16.22,18.34-.15,27.5.18,4.1.15,4.54-1.64,4.4-4.89-.13-2.87.4-5.28-4.14-5.17-13.2.33-26.41.2-39.62.06-3,0-4.11.76-4,3.87.21,6.48.06,13,.06,19.45h.09c0,7.1-.37,14.23.09,21.3.77,11.84,7.43,17.82,19.35,17.93,7.92.08,15.86-.23,23.77.12,4.06.18,4.64-1.55,4.39-4.84-.21-2.85.76-5.79-4.23-5.5-7.74.46-15.53.21-23.3.09-5.38-.09-8.31-3.12-8.42-8.36,0-2,.18-4-.05-6-.35-3,1.06-3.56,3.76-3.52"/><path class="cls-2" d="M205.78,27.19c8.85-8.56,17.27-17.56,26.51-27a93.21,93.21,0,0,1-9.57-.06c-4.26-.48-7.23,1-10.1,4.19-6.69,7.3-13.75,14.28-20.72,21.32-.75.77-1.18,2.31-3,1.81,0-7.85-.09-15.7.05-23.55,0-2.69-.54-4.13-3.58-3.74a23.31,23.31,0,0,1-4.65,0c-2.31-.18-2.92.92-2.92,3q.08,28.26,0,56.51c0,2.55,1,3.25,3.33,3a16.61,16.61,0,0,1,3.73,0c3.32.48,4.21-.89,4.13-4.11-.22-8-.08-16-.08-24.36,2,.12,2.48,1.42,3.3,2.23,7.92,7.85,15.79,15.75,23.71,23.61,1.06,1.06,1.91,2.56,3.69,2.57,4.56,0,9.12,0,13.67,0,.27-.48.54-1,.8-1.44-9.33-9-18.58-18.1-28.06-26.94-2.84-2.64-3.29-4.11-.21-7.1"/><path class="cls-2" d="M339.26,19A19.3,19.3,0,0,0,320.6.2C310.5,0,300.39.28,290.29.07,287,0,286.51,1.39,286.55,4.16c.13,9.11.05,18.23.05,27.34V56.06c0,6.65,0,6.36,6.59,6.74,4.23.24,5.15-1.13,5.08-5.14-.25-14.51,0-29-.15-43.55,0-2.87.46-4.17,3.81-3.94,5.11.35,10.25.07,15.38.1,7.74.05,10.39,2.68,10.41,10.29,0,12.82.07,25.64-.05,38.46,0,2.72.57,4.12,3.58,3.7a13.25,13.25,0,0,1,3.72,0c3.52.53,4.46-.88,4.4-4.34-.2-13.12,0-26.25-.11-39.38"/><path class="cls-2" d="M170.8,7.88C170.74-1,172.44.44,162.94.07c-3.48-.13-4.08,1.25-4,4.29.17,8.94.06,17.88.06,26.83V55.24c0,7.55,0,7.33,7.63,7.55,3.67.11,4.32-1.2,4.29-4.5-.16-16.8,0-33.61-.1-50.41"/></g></g></svg>