<svg xmlns="http://www.w3.org/2000/svg" viewBox="0 0 400.35 154.38"><defs><style>.cls-1{font-size:48.72px;font-family:DFLiHei-Bd-HK-BF, DFPLiHei-Bd;letter-spacing:0.15em;}.cls-1,.cls-2{fill:#727171;}</style></defs><g id="圖層_2" data-name="圖層 2"><g id="圖層_1-2" data-name="圖層 1"><text class="cls-1" transform="translate(0 143.26) scale(0.79 0.85)">日本大建室內靜音門</text><path class="cls-2" d="M162.5,38.88c0-7,.14-13.93,0-20.89C162.2,7,155.53.39,144.6.25c-9.32-.12-18.66.18-28-.11C112,0,113.33,3,113.15,5.35c-.19,2.59-.38,4.78,3.61,4.62,7.91-.31,15.85-.12,23.77-.08s11.15,3.38,11.13,11.42c0,2.7-.9,3.41-3.49,3.37-7.3-.13-14.61-.21-21.91,0-11.39.39-17.87,7.65-17.72,19.45.14,11.47,6.77,18.43,18.08,18.6,10.72.16,21.44-.09,32.16.13,3.32.07,3.84-1.25,3.77-4.06-.15-6.65-.05-13.31-.05-20m-13.58,13.8c-3.73-.11-7.46,0-11.19,0-3.43,0-6.85.12-10.27,0C122.75,52.39,120,49,120,43.72s2.72-8.76,7.46-8.89c7.15-.18,14.31,0,21.46-.09,2,0,2.75.71,2.7,2.71-.1,4.17-.11,8.36,0,12.54.06,2-.69,2.74-2.7,2.69"/><path class="cls-2" d="M77.58.15C69.8.14,62,.27,54.25.09,51.35,0,50.54,1,50.58,3.78c.16,9.29.06,18.59.06,27.88,0,9,.19,18-.09,26.94-.11,3.61,1.09,4.4,4.48,4.3,8.23-.24,16.48,0,24.72-.09C91.17,62.75,99.26,57,103,46.18a45.48,45.48,0,0,0,1.22-24.74C101,6.68,92.72.18,77.58.15M91.84,43.32c-1.88,6.19-6.17,9.53-12.68,9.75-4.81.16-9.64,0-14.45.11-2.34.07-2.91-.94-2.88-3,.08-6.35,0-12.7,0-19,0-5.88.14-11.77-.06-17.65-.1-2.9.91-3.76,3.73-3.63,4.5.22,9-.05,13.53.1,6.4.2,10.59,3.16,12.59,9.2a39.31,39.31,0,0,1,.19,24.2"/><path class="cls-2" d="M259.67,34.68c9.63.13,19.27-.11,28.9.12,4.8.11,3.12-3.17,3.23-5.38s1.12-5.07-3.24-4.91c-7.45.29-14.91.08-22.37.08-10.36,0-10.24,0-10.29-10.46,0-3.17.79-4.28,4.13-4.2,9.16.22,18.34-.15,27.49.18,4.1.15,4.55-1.64,4.41-4.9-.13-2.88.4-5.29-4.14-5.17-13.2.32-26.41.19-39.62,0-3,0-4.12.76-4,3.88.21,6.49.06,13,.06,19.49h.09c0,7.12-.38,14.25.09,21.34.77,11.87,7.43,17.86,19.35,18,7.92.08,15.86-.23,23.77.13,4.06.18,4.63-1.56,4.39-4.86-.21-2.85.76-5.81-4.23-5.51-7.74.46-15.54.21-23.3.08-5.38-.08-8.31-3.12-8.42-8.37-.05-2,.18-4-.05-6-.35-3,1.06-3.57,3.76-3.53"/><path class="cls-2" d="M216.21,27.25c8.85-8.58,17.27-17.6,26.51-27.1a93.21,93.21,0,0,1-9.57-.06c-4.27-.48-7.23,1-10.11,4.2-6.69,7.32-13.74,14.31-20.71,21.37-.76.76-1.18,2.31-3,1.81,0-7.87-.09-15.74.05-23.61,0-2.69-.54-4.13-3.58-3.74a23.31,23.31,0,0,1-4.65,0c-2.31-.18-2.92.92-2.92,3q.07,28.3,0,56.62c0,2.56,1,3.26,3.34,3.05a16.61,16.61,0,0,1,3.73,0c3.32.48,4.21-.9,4.12-4.12-.22-8-.07-16.08-.07-24.41,2,.13,2.48,1.42,3.3,2.24,7.92,7.86,15.79,15.78,23.7,23.66,1.07,1.06,1.91,2.56,3.7,2.57,4.56,0,9.11,0,13.67,0l.8-1.45c-9.34-9-18.58-18.13-28.07-27-2.83-2.64-3.29-4.12-.2-7.11"/><path class="cls-2" d="M349.69,19A19.32,19.32,0,0,0,331,.2C320.92,0,310.81.29,300.71.07,297.4,0,296.94,1.39,297,4.17c.13,9.13,0,18.26,0,27.39V56.17c0,6.67,0,6.38,6.6,6.76,4.22.24,5.15-1.13,5.08-5.15-.25-14.54,0-29.09-.15-43.64,0-2.87.46-4.17,3.81-4,5.1.35,10.25.07,15.38.1,7.73.06,10.39,2.68,10.4,10.32,0,12.84.08,25.69-.05,38.53,0,2.73.58,4.13,3.59,3.71a13.25,13.25,0,0,1,3.72,0c3.52.53,4.46-.88,4.4-4.35-.2-13.15,0-26.3-.11-39.46"/><path class="cls-2" d="M181.23,7.89C181.17-1,182.87.44,173.37.07c-3.49-.13-4.08,1.25-4,4.3.17,9,.06,17.92.06,26.88v24.1c0,7.57,0,7.35,7.63,7.57,3.67.11,4.32-1.21,4.28-4.51-.15-16.84,0-33.68-.09-50.52"/></g></g></svg>