<svg xmlns="http://www.w3.org/2000/svg" viewBox="0 0 290.79 173.41"><defs><style>.cls-1{font-size:38.51px;font-family:LinGothic-Light;font-weight:300;letter-spacing:0.15em;}.cls-1,.cls-2{fill:#fff;}</style></defs><g id="圖層_2" data-name="圖層 2"><g id="圖層_1-2" data-name="圖層 1"><text class="cls-1" transform="translate(56.43 166.89) scale(1 0.85)">精品衛浴</text><path class="cls-2" d="M.4,21.62H15.83V71.23H.4ZM16.34,7.81c0,4.27-3.25,7.72-8.32,7.72-4.88,0-8.11-3.45-8-7.72C-.09,3.35,3.14,0,8.12,0s8.11,3.35,8.22,7.81"/><path class="cls-2" d="M28.21,37.44c0-6.19-.2-11.46-.4-15.82H41.2l.71,6.78h.31a18.16,18.16,0,0,1,15.31-7.9c10.15,0,17.76,6.69,17.76,21.3V71.23H59.87V43.73c0-6.39-2.23-10.76-7.81-10.76a8.22,8.22,0,0,0-7.81,5.79,10.49,10.49,0,0,0-.61,3.86V71.23H28.21Z"/><path class="cls-2" d="M87.66,37.44c0-6.19-.2-11.46-.39-15.82h13.4l.69,6.78h.31A18.15,18.15,0,0,1,117,20.5c10.14,0,17.76,6.69,17.76,21.3V71.23H119.33V43.73c0-6.39-2.24-10.76-7.82-10.76a8.26,8.26,0,0,0-7.82,5.79,10.72,10.72,0,0,0-.6,3.86V71.23H87.66Z"/><path class="cls-2" d="M160.2,46.37c0,8.52,3.56,14.92,10.15,14.92,6,0,9.84-6,9.84-14.92,0-7.4-2.85-14.91-9.84-14.91-7.41,0-10.15,7.6-10.15,14.91m35.93-.51c0,18.17-12.89,26.48-26.19,26.48-14.5,0-25.66-9.53-25.66-25.57S154.84,20.5,170.76,20.5c15.22,0,25.37,10.44,25.37,25.36"/><path class="cls-2" d="M242.9,70c-2.73,1.22-7.92,2.24-13.8,2.24-16,0-26.28-9.75-26.28-25.37,0-14.51,9.94-26.38,28.42-26.38A35.92,35.92,0,0,1,243,22.42l-2.44,11.47A20.9,20.9,0,0,0,232,32.37c-8.13,0-13.39,5.79-13.3,13.9,0,9.13,6.08,13.9,13.6,13.9a23.81,23.81,0,0,0,8.82-1.52Z"/><path class="cls-2" d="M251.41,21.62h15.43V71.23H251.41ZM267.35,7.81c0,4.27-3.25,7.72-8.32,7.72-4.86,0-8.12-3.45-8-7.72C250.91,3.35,254.17,0,259.14,0s8.12,3.35,8.21,7.81"/><path class="cls-2" d="M281.36,62.35h1.47c.86,0,1.47-.15,1.47-1.1s-.93-1.08-1.67-1.08h-1.27Zm-1.94-3.72h3.43c2.29,0,3.4,1,3.4,2.73a2.37,2.37,0,0,1-2.19,2.45l2.19,3.63h-2.12l-2.07-3.54h-.7v3.54h-1.94Zm3.19,10.24a5.84,5.84,0,1,0-5.7-5.84,5.71,5.71,0,0,0,5.7,5.84m0-14A8.18,8.18,0,1,1,274.43,63a8.19,8.19,0,0,1,8.18-8.17"/></g></g></svg>