<svg xmlns="http://www.w3.org/2000/svg" viewBox="0 0 499.37 178.81"><defs><style>.cls-1{font-size:48.72px;font-family:DFLiHei-Bd-HK-BF, DFPLiHei-Bd;letter-spacing:0.15em;}.cls-1,.cls-2{fill:#727171;}</style></defs><g id="圖層_2" data-name="圖層 2"><g id="圖層_1-2" data-name="圖層 1"><text class="cls-1" transform="translate(0 167.69) scale(0.79 0.85)">比利時LAMETT石晶地板</text><path class="cls-2" d="M249.68,88.69H428.56c2.22,0,2.22,0,2.22,2.17,0,2.73,0,5.46,0,8.19,0,.81-.24,1.12-1.08,1.1-1.51-.05-3,0-4.53,0q-177.49,0-355,0c-1.24,0-1.68-.29-1.63-1.6.1-2.89.08-5.79,0-8.69,0-1,.29-1.28,1.22-1.2s1.59,0,2.39,0Z"/><path class="cls-2" d="M216.41,72.37v4H194.78V72.51c.15-.08.22-.15.29-.15,3.09,0,4.37-1,4.41-4.65.1-9.48.05-19,0-28.46a14.06,14.06,0,0,0-.83-4.43,4.14,4.14,0,0,0-7.22-1.49,16,16,0,0,0-2.68,4.77A31.43,31.43,0,0,0,186.9,49c-.08,6.13-.16,12.26,0,18.38.1,4.1.56,4.4,4.67,5.11a32.83,32.83,0,0,1,0,3.43c0,.22-.74.54-1.14.54-3.52,0-7,0-10.58,0h-9.32c-.45,0-.9,0-1.38-.07v-4l1.68-.08c2.33-.14,3.43-1.14,3.74-3.46a17.18,17.18,0,0,0,.13-2.38q0-16.06,0-32.12a17.92,17.92,0,0,0-.17-2.64c-.32-2.18-1.26-3.07-3.44-3.34-.62-.08-1.24-.08-1.95-.13V24.13L186.35,23c-.19,4.3-.38,8.49-.57,12.67l.32.09c.16-.38.35-.76.49-1.15a22.68,22.68,0,0,1,4.69-8,10.91,10.91,0,0,1,7.34-3.71c5.19-.35,9,2.35,10.71,7.7.54,1.7.85,3.47,1.34,5.54.3-.62.52-1,.68-1.44a26.11,26.11,0,0,1,4.64-8,10.89,10.89,0,0,1,18.39,2.85c1.82,4,2.14,8.26,2.16,12.56,0,8.1,0,16.21,0,24.31,0,.84,0,1.68.1,2.51.21,2.2,1.17,3.14,3.36,3.33l1.56.11v4c-.46,0-.92.07-1.37.07-6.42,0-12.84,0-19.27,0-1.08,0-1.42-.32-1.34-1.35.06-.87,0-1.75,0-2.64a2.75,2.75,0,0,1,.56-.17c3.05-.27,3.73-.9,4.19-3.94a7.45,7.45,0,0,0,.11-1.25c0-9.07,0-18.14-.07-27.21a16.47,16.47,0,0,0-.91-5c-1.15-3.43-4.92-4.12-7.42-1.48a12.2,12.2,0,0,0-3.06,6.4,78.73,78.73,0,0,0-1.3,10.59c-.21,5.41-.06,10.83,0,16.24a15.38,15.38,0,0,0,.21,2.63c.37,2.11,1.27,2.88,3.38,3Z"/><path class="cls-2" d="M68.59,72.28c1.33,0,2.46,0,3.58,0,2.76-.14,4-1.31,4.45-4a17.34,17.34,0,0,0,.16-2.39q0-27.58,0-55.17c0-.17,0-.34,0-.51-.1-4.59-1.53-6-6.09-6-2.46,0-2.11.1-2.11-2.06a6.68,6.68,0,0,0,0-1C68.5.33,68.77,0,69.63,0Q84.24,0,98.85,0c.79,0,1.11.22,1.14,1.06.1,3.1.13,3.1-3,3.12-5,0-6.4,1.35-6.42,6.58,0,8.69,0,17.38,0,26.08,0,9.44,0,18.89,0,28.34A20.15,20.15,0,0,0,91,69.06a3.53,3.53,0,0,0,3.24,3.07c3.3.31,6.62.49,9.86-.56,4.56-1.47,7-5,8.75-9.14,2-4.79,2.94-9.88,3.81-15a28.11,28.11,0,0,0,.45-2.85c.06-.89.46-1.15,1.28-1.08.62.06,1.25,0,2.07,0,0,.66,0,1.22,0,1.79-.46,10-1,20-1.38,30.07,0,1.07-.59,1.07-1.37,1.07q-16.69,0-33.39,0c-4.83,0-9.65,0-14.48,0-1,0-1.29-.28-1.22-1.22S68.59,73.44,68.59,72.28Z"/><path class="cls-2" d="M166.29,70.07c1.74,2.43,1.88,1.83,0,4-3.13,3.54-8.71,4.53-12.51,2.23-2.88-1.74-3.88-4.6-4.35-7.73a7.15,7.15,0,0,0-.44-2c-.24.38-.52.76-.72,1.16a22.37,22.37,0,0,1-5.33,7.1c-4.8,4.11-12,4-16-.38a12.67,12.67,0,0,1-3-8.09c-.46-7.5,3.1-12.61,9.52-16.06a66.25,66.25,0,0,1,14.33-5.39c1-.26,1.4-.63,1.3-1.69-.3-3.38-.24-6.81-.83-10.14-1-5.42-4.58-7.35-10.23-6a8.17,8.17,0,0,0-2.58,1.23c-1,.7-1,1.55.08,2.16,3.68,2.1,4.23,7,2.89,10.38A6.13,6.13,0,0,1,132.77,45a6.23,6.23,0,0,1-5.66-4.45,13.21,13.21,0,0,1,5.69-15.43,21.1,21.1,0,0,1,18.8-1.39c5.28,2,7.83,6.39,8.83,11.71a37.73,37.73,0,0,1,.57,6.63c.06,8.44,0,16.87,0,25.31a10.35,10.35,0,0,0,.29,2.61c.48,1.73,1.9,2.22,3.43,1.25A15.27,15.27,0,0,0,166.29,70.07ZM149,48.25c-1.25.44-2.3.74-3.29,1.17-4.57,2-8,5-9,10.15a15.35,15.35,0,0,0,.14,7.1c.92,3.14,3.75,4.17,6.37,2.2a12.69,12.69,0,0,0,2.88-3.1C149.58,60.45,149.09,54.44,149,48.25Z"/><path class="cls-2" d="M279.2,61.5c2.47,1.49,2.49,1.5,1.3,3.93-2.12,4.32-4.77,8.21-9.1,10.63-8.25,4.63-18.56,2-24.17-6.22a30.83,30.83,0,0,1-5-15.11,39,39,0,0,1,2-17.24c2-5.37,5.08-10,10.14-12.9,8.11-4.69,17.12-2.55,22.44,5.2,3.56,5.17,4.74,11,4.95,17.16,0,1.09-.07,2.19,0,3.27.09,1.24-.31,1.66-1.62,1.65-7.85-.07-15.7,0-23.55,0-1.71,0-1.71,0-1.62,1.72a33.33,33.33,0,0,0,1.9,11,15.14,15.14,0,0,0,2.76,4.58c2.43,2.61,5.64,2.65,8.9,2,3.94-.81,6.51-3.46,8.7-6.59C277.88,63.52,278.53,62.5,279.2,61.5ZM254.87,47.38c3.66,0,7.18.09,10.69,0,2.09-.08,3.2-1,3.29-3.1a75.63,75.63,0,0,0-.23-9.28,13.39,13.39,0,0,0-2.21-6.61c-1.91-2.79-5.21-3-7.31-.41a14.26,14.26,0,0,0-2.23,4.18C255.19,37,255,42.13,254.87,47.38Z"/><path class="cls-2" d="M289.14,28.64c-1.91,0-3.62-.06-5.34,0-1,0-1.29-.35-1.28-1.31,0-2.26,0-2.27,2.18-3,6.21-2.1,9.66-6.71,11.5-12.72a53.54,53.54,0,0,0,1.46-6.5c.17-1,.58-1.26,1.48-1.18.62,0,1.25,0,2.08,0V24.08h11.34v4.48H301.15c0,.59-.06,1-.06,1.48,0,10.45,0,20.91,0,31.36a31.34,31.34,0,0,0,.91,6.44,3.45,3.45,0,0,0,3.31,2.82,3.5,3.5,0,0,0,3.7-2.11,49.66,49.66,0,0,0,1.84-6.74,28.58,28.58,0,0,0,.34-3.6h2.95a28.19,28.19,0,0,1-.92,9.07,23.66,23.66,0,0,1-2.34,5.8c-2.57,4.23-7.24,5.83-12.43,4.63C293.8,76.62,291.1,73.53,290,69a30.26,30.26,0,0,1-.82-7c-.09-10.58,0-21.16-.05-31.74Z"/><path class="cls-2" d="M322.92,28.62c-2,0-3.75,0-5.5,0-.75,0-1-.22-1.07-1-.1-2.49-.14-2.53,2.26-3.36,6.57-2.26,9.9-7.31,11.68-13.64.59-2.13,1-4.33,1.46-6.6H335V24.1h11.34v4.53H335c0,.38-.09.62-.09.86,0,11,0,22,.06,33a23.49,23.49,0,0,0,1,5.54,3.36,3.36,0,0,0,3.2,2.61,3.51,3.51,0,0,0,3.73-2,42,42,0,0,0,1.81-6.36,32.53,32.53,0,0,0,.38-4.06h3c0,.73,0,1.46,0,2.2a28.45,28.45,0,0,1-2.67,11.81c-4.2,8.39-16,6.92-19.63,1.18A18,18,0,0,1,323,64.67c-.13-2.35-.1-4.7-.1-7.05q0-13.66,0-27.33Z"/><path class="cls-2" d="M356.93,76.29c0-1-.05-1.82,0-2.64.08-1-.23-1.43-1.26-1.29a10,10,0,0,1-1.35,0V68.25l2.56-.12V64.06h1.49q35.58,0,71.15,0c1,0,1.35.31,1.27,1.29s0,1.84,0,2.88l-2.61.16v3.81l2.6.17c0,1.1.05,2.18,0,3.25,0,.25-.48.61-.79.66a10.7,10.7,0,0,1-1.88,0H356.93Z"/><path class="cls-2" d="M350.26,15.67a6.46,6.46,0,0,1-6.58-6.49A6.57,6.57,0,0,1,356.81,9,6.47,6.47,0,0,1,350.26,15.67Zm5.26-6.53a5.29,5.29,0,1,0-10.58-.07,5.29,5.29,0,1,0,10.58.07Z"/><path class="cls-2" d="M347,12.49a8.79,8.79,0,0,0,.11-7.16,11.54,11.54,0,0,1,5.2.29,1.84,1.84,0,0,1,1,1.4,7.4,7.4,0,0,1-1.09,2.18l1.64,3.14c-1.66.78-2.3.47-2.77-1.19-.19-.68,0-1.67-1.53-1.79.21,1.1.39,2.05.6,3.13Zm2.71-4c1.33-.15,1.89-1.07,1.33-2a1.43,1.43,0,0,0-.91-.46c-.09,0-.36.46-.4.74A15.36,15.36,0,0,0,349.73,8.51Z"/></g></g></svg>