<svg xmlns="http://www.w3.org/2000/svg" viewBox="0 0 418.85 161.23"><defs><style>.cls-1{font-size:38.51px;font-family:LinGothic-Light;font-weight:300;letter-spacing:0.15em;}.cls-1,.cls-2{fill:#fff;}</style></defs><g id="圖層_2" data-name="圖層 2"><g id="圖層_1-2" data-name="圖層 1"><text class="cls-1" transform="translate(75.97 154.71) scale(1 0.85)">多功能暖風機</text><path class="cls-2" d="M58.06,34.06l-3.27-1.32a1.53,1.53,0,0,1-.88-1.32V26.85a1.55,1.55,0,0,1,.88-1.33L58,24.16a1,1,0,0,0,.52-1.25l-4.26-10a.94.94,0,0,0-1.25-.5l-.66.26-1.76.75-.83.35a1.51,1.51,0,0,1-1.56-.3L45,10.19a1.55,1.55,0,0,1-.31-1.57l1.3-3.21a1,1,0,0,0-.53-1.25L35.3.07A1,1,0,0,0,34.06.6L32.73,3.87a1.56,1.56,0,0,1-1.32.88H26.84a1.57,1.57,0,0,1-1.33-.87L24.16.67A1,1,0,0,0,22.91.15l-10,4.26a.94.94,0,0,0-.51,1.25l1.38,3.25a1.53,1.53,0,0,1-.3,1.56L10.2,13.71A1.58,1.58,0,0,1,8.63,14L5.41,12.72a1,1,0,0,0-1.24.53L.07,23.35A1,1,0,0,0,.59,24.6l3.27,1.32a1.54,1.54,0,0,1,.9,1.32l0,4.58a1.59,1.59,0,0,1-.88,1.33L.67,34.5a1,1,0,0,0-.5,1.26l4.24,10a1,1,0,0,0,1.25.51l3.26-1.38a1.54,1.54,0,0,1,1.57.31l3.21,3.24A1.56,1.56,0,0,1,14,50l-1.31,3.22a1,1,0,0,0,.52,1.25L23.35,58.6a1,1,0,0,0,1.25-.53l1.33-3.27a1.54,1.54,0,0,1,1.31-.89l4.58,0a1.57,1.57,0,0,1,1.33.87L34.5,58a1,1,0,0,0,1.26.5l10-4.24A.94.94,0,0,0,46.3,53l-1.37-3.26a1.54,1.54,0,0,1,.31-1.56L48.46,45A1.6,1.6,0,0,1,50,44.64l3.21,1.3a1,1,0,0,0,1.25-.53l4.09-10.1A1,1,0,0,0,58.06,34.06ZM29.32,48.83,10,29.52,29.16,10.39l-.55-.54h5.93v5.94L34,15.21,18.69,30.49l9.66,9.66L39.91,28.59l-2.52-2.53-6.67,6.66.55.54H25.34V27.33l.57.58L36.46,17.34,48.63,29.51Z"/><polygon class="cls-2" points="110.07 49.49 73.98 49.49 73.98 9.6 82.55 9.6 82.55 42.94 110.07 42.94 110.07 49.49"/><rect class="cls-2" x="116.44" y="9.6" width="8.74" height="39.89"/><polygon class="cls-2" points="141.94 49.49 133.57 49.49 133.57 9.64 172.16 9.64 172.16 16.14 141.94 16.14 141.94 25.42 170.71 25.42 170.71 31.91 141.94 31.91 141.94 49.49"/><polygon class="cls-2" points="217.31 49.49 177.61 49.49 177.61 9.64 217.31 9.64 217.31 16.19 185.94 16.19 185.94 25.87 214.82 25.87 214.82 32.42 185.94 32.42 185.94 42.99 217.31 42.99 217.31 49.49"/><polygon class="cls-2" points="312.73 49.52 273.03 49.52 273.03 9.68 312.73 9.68 312.73 16.22 281.35 16.22 281.35 25.91 310.25 25.91 310.25 32.45 281.35 32.45 281.35 43.02 312.73 43.02 312.73 49.52"/><path class="cls-2" d="M244.32,49.49c-2.27,0-4.58,0-6.9-.11-5-.18-8.87-1.29-11.56-3.31s-4.3-5.24-4.38-9.27c0-.9,0-1.95-.06-3.21s0-2.61,0-4V25.42c0-1.39,0-2.63.11-3.68.14-4.23,1.75-7.44,4.77-9.49a15.22,15.22,0,0,1,5.6-2.26A40.73,40.73,0,0,1,239,9.24c.81,0,1.76-.05,2.85-.05h3.32q1.73,0,3.3,0c1,0,1.9,0,2.57,0a27.37,27.37,0,0,1,7.19.9,13.84,13.84,0,0,1,4.93,2.49A10,10,0,0,1,266,16.5a11.63,11.63,0,0,1,.87,4.34v3.5l-8.19-.07V20.74a4.67,4.67,0,0,0-.35-1.81,3.22,3.22,0,0,0-1-1.39,5.43,5.43,0,0,0-2-1.16,10,10,0,0,0-3-.5c-.95,0-2-.05-3.28-.07-2.48,0-5.27,0-7.94,0-1.33,0-2.54,0-3.65.07a9.68,9.68,0,0,0-5.61,1.61,4.74,4.74,0,0,0-2,3.86c0,1.15-.07,2.44-.1,3.84s0,2.8,0,4.18,0,2.71,0,4,.06,2.33.1,3.24a6,6,0,0,0,2,4.56c1.28,1.09,3.35,1.68,6.15,1.74,1.09,0,2.21,0,3.36,0h6.88c1,0,2,0,2.75,0,3.08-.09,5.24-.74,6.43-1.94a4.9,4.9,0,0,0,1.3-3.57v-4H239.81V26.94h27.05V37.38A12.3,12.3,0,0,1,266,42a9.51,9.51,0,0,1-2.87,3.86C260.51,48,256.55,49.2,251,49.38,248.86,49.45,246.59,49.49,244.32,49.49Z"/><path class="cls-2" d="M370.55,49.52h-8.9l-3.76-9.94H331l-3.88,9.94h-8.95L333.81,9.63h21.42ZM333.5,33h21.93l-6.55-16.92h-8.77Z"/><path class="cls-2" d="M384.53,49.46H376V9.61h31.37c6.06,0,11.47,2.41,11.47,11.63,0,9.47-3.67,12-11.37,12h-23Zm0-22.83H407.2s3.15,0,3.15-5.31c0-5.11-3.4-5.11-3.4-5.11H384.53Z"/><path class="cls-2" d="M407.71,49.54h8.53s-.61-12.35-4.41-17.83h-9.38S407.19,35.61,407.71,49.54Z"/></g></g></svg>