<svg xmlns="http://www.w3.org/2000/svg" viewBox="0 0 422.5 166.65"><defs><style>.cls-1{font-size:38.51px;font-family:LinGothic-Light;font-weight:300;letter-spacing:0.15em;}.cls-1,.cls-2{fill:#fff;}</style></defs><g id="圖層_2" data-name="圖層 2"><g id="圖層_1-2" data-name="圖層 1"><text class="cls-1" transform="translate(77.8 160.13) scale(1 0.85)">日本精品衛浴</text><path class="cls-2" d="M0,0H27.92Q37,0,41.58,4.47t4.54,12.69q0,8.47-4.95,13.24T26.06,35.16H16.87V55.91H0ZM16.87,23.84H21c3.24,0,5.52-.58,6.82-1.74a5.64,5.64,0,0,0,2-4.44,6.32,6.32,0,0,0-1.7-4.46q-1.71-1.83-6.42-1.83H16.87Z"/><path class="cls-2" d="M67.66,28.53,53.24,27a16.86,16.86,0,0,1,2.35-6.12A13.17,13.17,0,0,1,60,17a18.68,18.68,0,0,1,5.71-1.83,45,45,0,0,1,7.86-.65,59.76,59.76,0,0,1,10.9.79,13.79,13.79,0,0,1,6.86,3.26,11.36,11.36,0,0,1,3,4.86,18.06,18.06,0,0,1,1.11,6V47.29a22.72,22.72,0,0,0,.35,4.49,21.13,21.13,0,0,0,1.54,4.13H83.23a14.76,14.76,0,0,1-1.11-2.38A18.31,18.31,0,0,1,81.6,51a19.49,19.49,0,0,1-5.9,4.2,24.08,24.08,0,0,1-9.3,1.68q-7.05,0-10.7-3.36a10.82,10.82,0,0,1-3.65-8.27,11,11,0,0,1,2.64-7.59q2.63-3,9.71-4.43,8.49-1.76,11-2.46a48,48,0,0,0,5.33-1.85c0-1.9-.38-3.24-1.14-4s-2.12-1.15-4-1.15A10.21,10.21,0,0,0,70,24.94a6.69,6.69,0,0,0-2.34,3.59m13.08,8.16c-2.07.76-4.23,1.44-6.48,2-3.06.84-5,1.67-5.82,2.48a4.06,4.06,0,0,0,0,5.86,5.19,5.19,0,0,0,3.65,1.16A9.19,9.19,0,0,0,76.76,47a7.51,7.51,0,0,0,3.08-3.07,10.63,10.63,0,0,0,.9-4.71Z"/><path class="cls-2" d="M104.55,15.41h14V22A21.09,21.09,0,0,1,125,16.23a16.44,16.44,0,0,1,7.85-1.73c4.19,0,7.45,1.27,9.81,3.83s3.54,6.5,3.54,11.84V55.91H131V33.64q0-3.81-1.37-5.4a4.85,4.85,0,0,0-3.86-1.58,5.38,5.38,0,0,0-4.44,2.14c-1.14,1.42-1.71,4-1.71,7.66V55.91H104.55Z"/><path class="cls-2" d="M169,28.53,154.53,27a16.68,16.68,0,0,1,2.35-6.12A13.17,13.17,0,0,1,161.31,17,18.68,18.68,0,0,1,167,15.14a45,45,0,0,1,7.86-.65,59.84,59.84,0,0,1,10.9.79,13.79,13.79,0,0,1,6.86,3.26,11.46,11.46,0,0,1,3,4.86,18.06,18.06,0,0,1,1.11,6V47.29a22.72,22.72,0,0,0,.35,4.49,21.13,21.13,0,0,0,1.54,4.13H184.52a14.76,14.76,0,0,1-1.11-2.38,17,17,0,0,1-.52-2.58,19.49,19.49,0,0,1-5.9,4.2,24.08,24.08,0,0,1-9.3,1.68q-7,0-10.7-3.36a10.82,10.82,0,0,1-3.65-8.27A11,11,0,0,1,156,37.61c1.76-2,5-3.46,9.72-4.43q8.49-1.76,11-2.46A48,48,0,0,0,182,28.87c0-1.9-.38-3.24-1.14-4s-2.12-1.15-4-1.15a10.26,10.26,0,0,0-5.56,1.22A6.74,6.74,0,0,0,169,28.53M182,36.69c-2.07.76-4.23,1.44-6.48,2q-4.61,1.26-5.82,2.48a4.06,4.06,0,0,0,0,5.86,5.19,5.19,0,0,0,3.65,1.16A9.19,9.19,0,0,0,178.05,47a7.51,7.51,0,0,0,3.08-3.07,10.63,10.63,0,0,0,.9-4.71Z"/><path class="cls-2" d="M203.17,44.66l15-1.44a7.59,7.59,0,0,0,2.59,3.92,7.54,7.54,0,0,0,4.45,1.18A7.36,7.36,0,0,0,229.9,47a3,3,0,0,0,1.3-2.48,2.84,2.84,0,0,0-1.71-2.59A30.32,30.32,0,0,0,223,40.33a66.81,66.81,0,0,1-10.91-2.61,11.7,11.7,0,0,1-5.16-4.06,10.73,10.73,0,0,1-2.09-6.52,10.85,10.85,0,0,1,2.26-6.89,13.51,13.51,0,0,1,6.23-4.33A32.31,32.31,0,0,1,224,14.5c4.69,0,8.16.36,10.4,1.1A13.6,13.6,0,0,1,240,19a18.12,18.12,0,0,1,3.72,6.3l-14.31,1.45a5.11,5.11,0,0,0-1.85-2.87,7.48,7.48,0,0,0-4.3-1.22,6,6,0,0,0-3.73.94,2.79,2.79,0,0,0-1.17,2.26,2.4,2.4,0,0,0,1.49,2.25c1,.51,3.13,1,6.45,1.37A43,43,0,0,1,237.46,32a12.4,12.4,0,0,1,5.62,4.46A11.15,11.15,0,0,1,245,42.77,12.81,12.81,0,0,1,243,49.59a14,14,0,0,1-6.49,5.28q-4.42,2-12.07,2-10.78,0-15.36-3.17a14.21,14.21,0,0,1-5.88-9"/><path class="cls-2" d="M250.37,35.78a20.58,20.58,0,0,1,6.07-15.28q6.09-6,16.43-6,11.82,0,17.87,7.05a20.8,20.8,0,0,1,4.85,14q0,9.35-6,15.31t-16.66,6q-9.5,0-15.35-5a20.12,20.12,0,0,1-7.19-16.09m15.12,0q0,5.41,2.13,8a6.87,6.87,0,0,0,10.72,0q2.09-2.55,2.09-8.19c0-3.51-.7-6.13-2.11-7.84a6.51,6.51,0,0,0-5.23-2.58,6.75,6.75,0,0,0-5.45,2.62q-2.14,2.61-2.15,8"/><path class="cls-2" d="M302.86,15.41h14.05V22a21.09,21.09,0,0,1,6.38-5.78,16.48,16.48,0,0,1,7.86-1.73q6.27,0,9.8,3.83c2.37,2.55,3.54,6.5,3.54,11.84V55.91H329.33V33.64c0-2.54-.45-4.34-1.37-5.4a4.83,4.83,0,0,0-3.85-1.58,5.4,5.4,0,0,0-4.45,2.14c-1.14,1.42-1.71,4-1.71,7.66V55.91H302.86Z"/><path class="cls-2" d="M354.06,0h15.09V10.56H354.06Zm0,15.41h15.09v40.5H354.06Z"/><path class="cls-2" d="M408.15,40.05l14.35,1.67a21,21,0,0,1-3.89,8A18.11,18.11,0,0,1,411.69,55,26.54,26.54,0,0,1,401,56.83a38.41,38.41,0,0,1-10.44-1.2,18.08,18.08,0,0,1-7.17-3.89,19.44,19.44,0,0,1-4.71-6.31,22.68,22.68,0,0,1-1.7-9.6,23.1,23.1,0,0,1,2.07-10.4A18.79,18.79,0,0,1,383.2,20a19.36,19.36,0,0,1,5.42-3.6,29.32,29.32,0,0,1,11.31-1.86q9.63,0,14.69,3.54a18.78,18.78,0,0,1,7.11,10.37l-14.2,1.95a6.84,6.84,0,0,0-2.43-3.91,7.71,7.71,0,0,0-4.73-1.31,7.52,7.52,0,0,0-6.06,2.76Q392,30.66,392,36.25c0,3.33.77,5.85,2.3,7.58a7.46,7.46,0,0,0,5.86,2.58,7.84,7.84,0,0,0,5-1.56,9.25,9.25,0,0,0,3-4.8"/></g></g></svg>