<svg xmlns="http://www.w3.org/2000/svg" viewBox="0 0 247.74 171.79"><defs><style>.cls-1{font-size:38.51px;font-family:LinGothic-Light;font-weight:300;letter-spacing:0.15em;}.cls-1,.cls-2{fill:#fff;}</style></defs><g id="圖層_2" data-name="圖層 2"><g id="圖層_1-2" data-name="圖層 1"><text class="cls-1" transform="translate(25.32 165.27) scale(1 0.85)">精品氣密窗</text><path class="cls-2" d="M185.78,65.13c.9-4.82-.8-7.83-5.76-10,4.58-1.23,6.48-4.12,5.88-8.78a7.43,7.43,0,0,0-7.76-6.64c-4.51,0-9,0-13.54,0-1.09,0-1.36.28-1.35,1.32.06,5,0,9.92,0,14.87q0,7,0,13.91c0,.55-.22,1.18.81,1.16,5.12-.06,10.24,0,15.36-.11,3-.09,5.78-2.85,6.33-5.74M172.31,43.57c4.37-.14,5.84.81,6,3.71,0,.16,0,.33,0,.49.06,4.85-1.76,6.37-6.65,5.66-.75-.11-.7-.49-.7-1v-4a4.26,4.26,0,0,1,0-1.6c.48-1.08-1.42-3.17,1.35-3.25m5.77,21.27c-.55,1.46-2,2.3-4,2.35-3.19.07-3.19.07-3.19-3.1V62.15a10,10,0,0,1,0-1.45c.17-1.12-.61-3,.37-3.23a7.77,7.77,0,0,1,5.63.39,1.59,1.59,0,0,1,.27.18c1.07.87,1.58,4.89.87,6.8"/><path class="cls-2" d="M129.63,59.85c0-3.31-1-4.4-4.5-4.94,3.39-1.53,4.73-4.15,4.48-8.37a7.34,7.34,0,0,0-7.11-6.76c-4.73-.05-9.46,0-14.19-.06-1,0-1.33.14-1.33,1.21q.08,14.39,0,28.78c0,1,.16,1.34,1.24,1.28a51.86,51.86,0,0,1,5.29,0c.93,0,1.2-.24,1.18-1.16-.06-3.12,0-6.25,0-9.38s0-3.23,3.38-3.16c2.47.05,3.88,1.43,3.89,3.81,0,2.91,0,5.82,0,8.73,0,.92.25,1.2,1.19,1.15,1.76-.07,3.53-.09,5.28,0,1.08.06,1.27-.33,1.26-1.28-.06-3.29,0-6.57,0-9.86M122,47.9c0,4.79-1.69,6.18-6.59,5.53-.78-.11-.68-.51-.68-1v-4a5.91,5.91,0,0,1,0-1.93c.36-1-1.21-2.74,1.1-2.91,4.55-.34,5.8.81,6.13,3.35a7.85,7.85,0,0,1,0,1"/><path class="cls-2" d="M245.64,44.94a7.14,7.14,0,0,0-7-5.16c-4.68,0-9.36,0-14-.06-1,0-1.32.21-1.31,1.23q.06,14.38,0,28.77c0,1,.2,1.33,1.26,1.27,1.76-.09,3.52-.08,5.28,0,.93,0,1.21-.23,1.19-1.16-.06-3.12,0-6.25,0-9.37s0-3.25,3.37-3.17c2.46.05,3.89,1.44,3.9,3.83,0,2.9,0,5.82,0,8.72,0,.94.27,1.19,1.2,1.14a48.08,48.08,0,0,1,5,0c1.19.07,1.61-.2,1.57-1.47-.11-3.23,0-6.46,0-9.69s-1-4.38-4.34-4.9c4.26-2.07,5-6.2,4-10m-13.58,8.48c-.76,0-1.06-.17-1-1,.06-1.34,0-2.69,0-4a5.91,5.91,0,0,1,0-1.93c.35-1-1.21-2.75,1.1-2.91,4.35-.32,5.71.61,6.13,3.35,0,.21,0,.43,0,.65.4,5.5-1.71,6-6.27,5.84"/><path class="cls-2" d="M215.94,46.94a7.27,7.27,0,0,0-7.53-7.19c-2.53,0-5.06,0-7.59,0a7.27,7.27,0,0,0-7.48,7.34c0,3.67,0,7.33,0,11s0,7.54,0,11.32c0,1.1.11,1.66,1.47,1.54a35.55,35.55,0,0,1,4.95,0c1,.05,1.29-.24,1.28-1.24-.07-3.78,0-7.55,0-11.32,0-.92.25-1.2,1.19-1.16a39.56,39.56,0,0,0,4.62,0c1.19-.08,1.59.2,1.56,1.46-.11,3.67,0,7.34-.06,11,0,1,.31,1.3,1.31,1.26,1.76-.06,3.53,0,5.28,0,.87,0,1.13-.23,1.12-1.09,0-7.65.05-15.31,0-23m-11.4,6.46c-3.56,0-3.56,0-3.56-3.46,0-1-.06-2,0-3.06a3.57,3.57,0,0,1,3.75-3.3,3.47,3.47,0,0,1,3.52,3.48c0,.92,0,1.83,0,2.74,0,3.6,0,3.6-3.75,3.6"/><path class="cls-2" d="M156,68.36c0-1.06-.38-1.21-1.32-1.19-2.92,0-5.84,0-8.75,0-.91,0-1.28-.18-1.22-1.14.08-1.35,0-2.7,0-4,.05-1.55-.69-3.6.29-4.48s2.92-.24,4.45-.25c2.8,0,2.73,0,2.77-2.7,0-1.08-.4-1.24-1.34-1.21-1.7.07-3.41,0-5.12,0-.88,0-1.1-.25-1.08-1.08.05-2.53.08-5.07,0-7.59,0-1.06.35-1.24,1.3-1.22,2.48.06,5,0,7.44,0S156,43.55,156,41c0-1-.19-1.27-1.25-1.26-5.5.06-11,.05-16.51,0-1.07,0-1.26.34-1.26,1.28.05,4.74,0,9.49,0,14.23s.05,9.27,0,13.9c0,1.39.24,1.92,1.83,1.88,4.84-.12,9.69-.05,14.54-.05,2.7,0,2.63,0,2.67-2.6"/><path class="cls-2" d="M199.11,81.21c-2,.06-4,0-5.94,0-.45,0-1,.2-1.07-.61s.6-.73,1.12-.73c1.32,0,2.65-.1,4,0,1.68.15,2.2-.9,2.81-2.17-5,0-9.75.08-14.53,0a3.27,3.27,0,0,0-3.57,2.19h3.27c1,0,2.09,0,3.13,0,.5,0,1.14-.23,1.12.7s-.72.62-1.17.63c-1.16.05-2.31,0-3.47,0-4.27,0-4.25,0-4,4.17,0,.75.22,1.09,1,1,.66-.08,1.48.27,1.61-.85.08-.8-.5-1.91.39-2.33a6.77,6.77,0,0,1,2.6-.09,15.76,15.76,0,0,1,1.82,0c.41,0,1.12-.35,1.18.42.07,1-.79.61-1.2.56-1.68-.18-2.94.26-3.63,2,3.25,0,6.44-.1,9.61,0a3.06,3.06,0,0,0,3.29-2c-1.57,0-3,0-4.49,0-.48,0-.86,0-.85-.67s.45-.61.88-.61a37.31,37.31,0,0,0,4,0c1.52-.18,1.9.4,1.75,1.76-.06.49-.41,1.22.38,1.52,1.37.53,2.23-.07,2.24-1.5,0-.43,0-.87,0-1.3.07-1.51-.67-2.13-2.2-2.09"/><path class="cls-2" d="M166,85.09c.88,0,1.23-.15,1.26-1.13,0-1.27-.11-1.91-1.72-1.8-2.52.17-2.53,0-2.52-2.53V77.21c-2.45,1.3-2.7,1.52-2.8,2.36s.42,2-.24,2.44-1.79.17-2.72.19c-.66,0-1.32,0-2,0a4,4,0,0,0-4.11,2.87c2.61,0,5.18,0,7.76,0,.81,0,1.12.12,1.07,1a12.91,12.91,0,0,1-5.1,10.05A31.42,31.42,0,0,1,150.37,99c.59.72,1.08,1.29,1.55,1.89a.73.73,0,0,0,1.11.2c5.1-3,9-6.87,9.61-13,.32-2.92.39-3,3.39-3"/><path class="cls-2" d="M187.55,97.08a23.77,23.77,0,0,1,3-.34c.8,0,1.14-.12,1.16-1,.07-3,.12-3-2.91-3h-.16c-.43-.07-1.12.24-1.12-.54s.71-.41,1.13-.52,1.53.45,1.36-.74.36-1.73,1.61-1.53c.58.1.75-.18.74-.73s0-.94-.76-.89c-1.37.08-3.11-.2-4.15,0-.6.09-1.8.27-2-.07-.64-.93-1.2-.39-1.74-.15a5.13,5.13,0,0,1-1.93.27c-.57,0-1.33-.34-1.35.81s.61.91,1.27.92c.45,0,1.22-.18,1.1.55-.29,1.69.72,1.7,1.91,1.61.36,0,.64.1.62.55s-.35.49-.68.5c-.77,0-1.54,0-2.31,0s-1.22.31-1.14,1.14a5.34,5.34,0,0,1,0,1.13c-.21,1.4.3,2,1.8,1.84a10,10,0,0,1,2.41.43l-.07,3.16s.37,1,1.14,1,1-1,1-1Zm-3.2-1.91c-.34-.08-.84.21-.9-.41s.48-.58.89-.57,1-.17,1,.5-.62.37-1,.48m.86-5.26c0-.8.83-.45,1.29-.46s1.19-.31,1.18.39c0,.87-2.46.72-2.47.07m3.38,4.28c.36,0,.93-.22.91.5s-.65.3-.88.5c-.44-.12-1.05.19-1.09-.46s.64-.53,1.06-.54"/><path class="cls-2" d="M196.44,87.7c-3.12,0-3.12,0-3.12,3.09,0,2.52.35,5.18-1,7.41-1,1.64-.45,2.28.94,2.92l.36.17a19.38,19.38,0,0,0,1.76-3.92c.55-1.48,1.88-.63,2.82-.65s.48.93.46,1.42c-.06,1.21-1.07.72-1.75.83-.42.07-1.09-.47-1.21.34-.08.59.1,1.46.56,1.57a6.37,6.37,0,0,0,3.72-.07c1-.37,1-1.42,1-2.35,0-2.1,0-4.2,0-6.3.06-5.08,0-4.46-4.53-4.46m.79,2.18c.52,0,1.43-.43,1.41.71s-1.06.46-1.54.77c-.53-.23-1.45.42-1.43-.78s1-.65,1.56-.7m-.17,4.9c-.5,0-1.4.51-1.43-.68,0-1.37,1-.75,1.63-.92.46.23,1.36-.46,1.4.75,0,1.4-1,.84-1.6.85"/><path class="cls-2" d="M169.84,82.2c-1.23,0-.67.92-.7,1.41-.14,2.15-.16,4.31-.27,6.47a40.91,40.91,0,0,1-.61,6.42,1.42,1.42,0,0,1-1.58,1.3c-1.26,0-2.53.07-3.79,0s-1,.87-1,1.54-.35,1.62,1,1.52c1.54-.11,3.08-.11,4.62-.23a3.49,3.49,0,0,0,3.43-2.92,47.62,47.62,0,0,0,.95-10.1c0-1.35.07-2.7,0-4-.08-1.19-1-1.4-2-1.39"/><path class="cls-2" d="M87.94,29.45h0a38.55,38.55,0,0,0-6-16.07,36.6,36.6,0,0,0-12-9.76A45.49,45.49,0,0,0,56.48.27L11.38.18c-.71,0-1.42.07-2.14.11l-.1,0A.36.36,0,0,0,8.85.7c0,3.6,0,7.21,0,10.82V16c0,.2,0,.46.27.38a.85.85,0,0,0,.18-.1,2.56,2.56,0,0,0-.11.24.53.53,0,0,1,.67-.06,11.06,11.06,0,0,1,3.3,0,4.69,4.69,0,0,1,.64-.09q19.86,0,39.71,0a20,20,0,0,1,7.26,1.14,4.26,4.26,0,0,1,2,.84h0a1.81,1.81,0,0,1,1.28.68h0A4.17,4.17,0,0,1,66,20.42a6.64,6.64,0,0,1,2.06,2.22,4.61,4.61,0,0,1,1.34,2.25h0a1.81,1.81,0,0,1,.6,1.32v0a3.49,3.49,0,0,1,.63,1.92,24.23,24.23,0,0,1,.65,11,4.92,4.92,0,0,1-.61,2.6,12.57,12.57,0,0,1-2.37,5.17,7.92,7.92,0,0,1-2.22,2.63h0a1.45,1.45,0,0,1-1,.85c-1.43,1.55.82,1.09,1,1.77a44.62,44.62,0,0,1,10.3,7c2,1.78,2,1.81,3.62-.48l.32-.33,1-1.06h0l.14-.23c.2-.36.41-.72.62-1.08l.17-.3c1-1,1.44-2.44,2.32-3.56a63.3,63.3,0,0,0,2.72-7.77c.18-.87.37-1.74.55-2.61,0-.21,0-.42.08-.63a66.77,66.77,0,0,0,0-11.66"/><path class="cls-2" d="M51.78,0l-.94,0a4.92,4.92,0,0,0,.94,0"/><path class="cls-2" d="M8.91,23.64a1.48,1.48,0,0,1,.19.27,1.69,1.69,0,0,1,.12.28v-.51a.54.54,0,0,0-.31,0"/><path class="cls-2" d="M10,23.69H9.86a1,1,0,0,0,.23.12h0c0,.34.05.68.07,1a1.87,1.87,0,0,1,.53-.94,1.59,1.59,0,0,0,.52-.2H10"/><path class="cls-2" d="M25.1,23.92h0c0,.34,0,.67,0,1v.63c0-.15.09-.29.12-.43l0-.11h0a1.39,1.39,0,0,0,.17-.82.85.85,0,0,0-.29-.27"/><path class="cls-2" d="M87.93,97.32c0-.83,0-1.66,0-2.5,0-.21,0-.42-.07-.63l-.57-3.25-.37-1.06a1.53,1.53,0,0,0-.31-1.27c.07-1.11-.65-2.07-.69-3.17L83.26,79a2.26,2.26,0,0,1-.68-1.28h0a1.45,1.45,0,0,1-.59-1l-.14,0-.08-.18c-.21-.5-.36-1-1-1.2a1.07,1.07,0,0,0-.33-.92l-.1-.07c-1.14-1.44-1.8-3.28-3.59-4.19,0,0,0,0,0,0l0,0,0,0h0c0-.26-.11-.53-.16-.79a60.49,60.49,0,0,0-9.92-8.2,33.78,33.78,0,0,0-5.17-2.94l-.09-.07-.6-.51-.13,0-.91-.26-.26-.07-3.74-1.87a2.9,2.9,0,0,1-1.13-.11c-2.81-1.64-6-2.14-9-3.22l-12.36-2.5-.86-.08L30,49.35a4.67,4.67,0,0,0-1-.18,6.14,6.14,0,0,0-.86,0l-.32,0-.16-.24-.6-.07-1.6-.07v-.22c0-7.68,0-15.37,0-23,0-.42.22-.93-.06-1.33a1.47,1.47,0,0,1-.17.82h0l0,.11c0,.14-.08.28-.12.43v-.63c0-.34,0-.67,0-1l0-.25-1.32-.09H11.18l0,.11a1.47,1.47,0,0,1-.52.2,1.87,1.87,0,0,0-.53.94c0-.33,0-.67-.07-1h0a.76.76,0,0,1-.23-.13l0-.1-.67.1v.51a1.39,1.39,0,0,0-.12-.28,1.48,1.48,0,0,0-.19-.27l0,24.83h0a1,1,0,0,0-.3.11h0l-3.28,0H4.74l-4,0-.27,0c-.18,0-.37,0-.45.23l0,.13V64.4a.44.44,0,0,1,0,.1c.1.36.45.27.71.27l6.23,0H8.52l.39.36q0,18.12,0,36.23l.35,0H25c.84-.39.4-1.13.4-1.68,0-11.22,0-22.43,0-33.64v-.81l1.14-.07h0a3.48,3.48,0,0,0,1.07.29q.34,0,.69,0l.62,0,.23.09a2.43,2.43,0,0,0,.74.18,2,2,0,0,0,.42,0l3.35.63a59.9,59.9,0,0,1,19.14,5.86h0a2.58,2.58,0,0,1,1.28.66h0c1.8.41,3,1.91,4.61,2.59l.1.08.32.23.2.14,1.33,1.22h0v0c.45.94,1.68,1.18,2.06,2.18.41-.11.61.23.9.38l.6.67A33.17,33.17,0,0,1,68.1,86a19.92,19.92,0,0,1,2.67,7.44,7.89,7.89,0,0,1,.54,3v.34h0l.1,0a4.13,4.13,0,0,0,.24,2v.06l0,2.53.31,0H87.85c.81-1.31.25-2.64.08-4m-86-32.94v0l0,0h0M9.2,48.82l0,0h0s0,0,0,0l0,0h0M.63,64.28a.34.34,0,0,1,0,.1H.5l.13-.11"/><path class="cls-2" d="M151.2,85.07h16.09V82h-13a3.07,3.07,0,0,0-3.09,3"/><path class="cls-2" d="M171.76,91.82H169V82a2.76,2.76,0,0,1,2.78,2.73Z"/><polygon class="cls-2" points="164.84 100.78 161.86 100.89 161.86 97.76 164.84 97.82 164.84 100.78"/><rect class="cls-2" x="180.43" y="87.67" width="11.96" height="1.78"/><rect class="cls-2" x="180.98" y="97.54" width="10.64" height="1.78"/><rect class="cls-2" x="185.33" y="90.95" width="2.35" height="10.43"/><rect class="cls-2" x="182.84" y="86.93" width="2.76" height="4.21"/><rect class="cls-2" x="187.26" y="86.93" width="2.76" height="4.21"/></g></g></svg>