<svg xmlns="http://www.w3.org/2000/svg" viewBox="0 0 420.92 166.77"><defs><style>.cls-1{font-size:38.51px;font-family:LinGothic-Light;font-weight:300;letter-spacing:0.15em;}.cls-1,.cls-2{fill:#fff;}</style></defs><g id="圖層_2" data-name="圖層 2"><g id="圖層_1-2" data-name="圖層 1"><text class="cls-1" transform="translate(32.53 160.25) scale(1 0.85)">日本林內廚房三機</text><path class="cls-2" d="M179.29,52.57V27.3c0-10.59-5.3-9.37-9.37-9.37s-6.52,1.63-9.37,1.63-3.26-1.63-3.26-1.63-14.67,4.08-17.53,5.3S139,26.9,139,26.9l2,2.44V51.75c0,4.08-3.26,2.44-6.93,2.44s-2.45-2.44-2.45-2.44V30.56s2.45-6.11-2-10.18-15.49-2-15.49-2c0,3.26-2,2.44-4.48,2.44s-2.85-2.85-2.85-2.85L87.61,24.45V27.3l5.29.82V47.67c0,5.71-.81,6.12-6.11,6.12s-4.07-2.85-4.07-2.85V21.6c0-3.26-2-3.26-2-3.26L62.75,24v3.67c2.85,0,4.08,5.7,4.08,5.7V50.53c0,3.66-4.89,2.85-4.89,2.85L45.23,30.16s8.56-5.3,8.56-14.67S38.3,3.67,38.3,3.67H1.63L1.22,6.11c3.67,0,3.27,1.63,3.27,1.63V49.31A5,5,0,0,1,0,54.6v1.64H28.12V53.79s0,.4-2.45,0-2-2-2-2V39.53c0-4.48,1.62-2.45,1.62-2.45L40.75,56.64h70.49V53.38c-2.85,0-2-2-2-2V30.56s-.81-5.7,3.27-5.7,4.88,2.85,4.88,2.85v24c0,4.49-3.26,2.44-3.26,2.44v2.86h44.82V54.19c-2,0-2.44-2.85-2.44-2.85V30.56c0-5.7,2.85-5.7,5.3-5.7a2.73,2.73,0,0,1,2.85,2v24L163,52.57v3.67h21.19V54.6ZM24,30.56v-22c4.89,0,13-.41,13,11.82S24,30.56,24,30.56"/><path class="cls-2" d="M82.31,8A7.95,7.95,0,1,1,74.37,0a7.94,7.94,0,0,1,7.94,8"/><path class="cls-2" d="M246.52,8a7.95,7.95,0,1,1-8-7.95,7.94,7.94,0,0,1,8,8"/><path class="cls-2" d="M225.33,24.86l20.78-5.71v32.2a4.75,4.75,0,0,0,4.08,2.44v3.26H224.52V54.6S229,53,229,49.31V28.52l-4.07-1.62Z"/><path class="cls-2" d="M220,45.23V28.12s.81-11.41-17.12-11.41S185.4,28.52,185.4,28.52s-1.22,6.12,6.11,6.12S198,25.27,198,25.27,197.63,22,200.48,22a3.83,3.83,0,0,1,4.07,4.07V31S187.44,40.75,185,43.61s-2,12.63,6.92,13,9.37-5.7,12.23-4.89,4.07,4.49,9.77,4.89,11-6.92,11-6.92-4.89,0-4.89-4.49m-15.49,1.22s0,2.45-5.7,2,.4-12.63,5.7-10.59Z"/><path class="cls-2" d="M328.42,17.93H315v7.74H303.57v8.15H315v.62l-12.63,7.94V39.63l-8.77-5.81h7.54V25.67H290.53V17.93H277.08v7.74H264v8.15h13v.62l-12.63,7.94v9.78l12.63-6.86V55.83h13.45V42.54l11.82,6.87v2.75L315,45.3V55.83h13.44V43.18l11.41,6.64V40l-9.38-6.22h10.19V25.67H328.42Zm61.94,7.74V17.52H376.51v8.15H348.8v31h13v-5l23.22-7.23,22.82,6.08v6.14h13v-31ZM376.51,37l-14.67,4.35V32.19h14.67Zm31.37,3.8-17.52-3.6v-5h17.52Z"/></g></g></svg>