<svg xmlns="http://www.w3.org/2000/svg" viewBox="0 0 305.41 152.1"><defs><style>.cls-1{font-size:48.72px;font-family:DFLiHei-Bd-HK-BF, DFPLiHei-Bd;letter-spacing:0.15em;}.cls-1,.cls-2{fill:#727171;}</style></defs><g id="圖層_2" data-name="圖層 2"><g id="圖層_1-2" data-name="圖層 1"><text class="cls-1" transform="translate(41.5 140.98) scale(0.79 0.85)">進口洗碗機</text><path class="cls-2" d="M236.91,41.89c0,7.77.17,15.54-.06,23.3-.14,4.88-1.47,9.59-5,13.19A24.12,24.12,0,0,1,220,84.77,65.79,65.79,0,0,1,188,83.41a1.24,1.24,0,0,1-1-1.39c0-2.48.14-5-.08-7.44-.08-.89.46-.82,1.06-.65a61,61,0,0,0,8,1.85,68.7,68.7,0,0,0,10.74.81,43.46,43.46,0,0,0,8-.53,18.33,18.33,0,0,0,4.48-1.62c4-2,5.63-5.44,6.12-9.63.12-1.1.16-2.22.19-3.33s-.15-1.16-1.11-.78a32.34,32.34,0,0,1-7.82,2.11c-7.82,1.1-15.45.62-22.62-3.11a22.78,22.78,0,0,1-10.93-12.51,41.69,41.69,0,0,1-2.51-12.1,47,47,0,0,1,1.37-15.9c2.48-9.11,8.44-14.82,17.46-17.4A41.44,41.44,0,0,1,212.71.26c5.18.24,10.28,1,14.95,3.51a16.54,16.54,0,0,1,9.08,13.3,29,29,0,0,1,.17,3.72Q236.93,31.34,236.91,41.89Zm-11.38-8.33c-.11-4.06.1-9.18-.1-14.3-.16-4-2.19-6.59-5.8-8a23,23,0,0,0-12.2-1.33c-9.13,1.32-13.18,6.06-15.18,14.28A34.91,34.91,0,0,0,192,37.25a24.55,24.55,0,0,0,2.91,8.64,14.62,14.62,0,0,0,10.21,7.21A29.16,29.16,0,0,0,224,50.71a2.34,2.34,0,0,0,1.52-2.44C225.5,43.72,225.53,39.17,225.53,33.56Z"/><path class="cls-2" d="M169.77,40.33q0,10.28,0,20.54c0,2.31,0,2.36-2.32,2.42-2.74.06-5.48,0-8.22,0-.65,0-.89-.25-.89-.92q0-13.19,0-26.36c0-1.53-.09-1.6-1.59-1.73-3.23-.28-6.46-.72-9.7-.85-4.2-.17-8.42-.2-12.5,1.07-3.23,1-5.71,2.92-6.34,6.36-.83,4.46-.09,8.51,3.54,10.94a13.83,13.83,0,0,0,7.26,2.08,36.93,36.93,0,0,0,13.29-1.69c.72-.24,1,0,1,.72,0,2.58,0,5.16,0,7.74a1,1,0,0,1-.83,1.18A44.9,44.9,0,0,1,134.4,63a28.81,28.81,0,0,1-7.47-2,15.65,15.65,0,0,1-9.78-11.3A25.48,25.48,0,0,1,117,38.33c1.27-5.93,5-9.7,10.54-11.91a34.3,34.3,0,0,1,10.16-2.13,93.79,93.79,0,0,1,19.81.87c.46.06.87.1.86-.53a40.2,40.2,0,0,0-.24-6.76,8.33,8.33,0,0,0-4.5-6,21.18,21.18,0,0,0-9.12-2.23,67.14,67.14,0,0,0-22.09,2.74c-1,.28-1.07.22-1-.85,0-2.41.08-4.83.08-7.25a1.19,1.19,0,0,1,1-1.34A79.39,79.39,0,0,1,137.33.38a56.65,56.65,0,0,1,15.22.83c4.49.88,8.72,2.45,12.1,5.72a16.8,16.8,0,0,1,5.09,12.2C169.87,26.19,169.77,33.26,169.77,40.33Z"/><path class="cls-2" d="M305.39,31.31a46.32,46.32,0,0,1-2.13,15.11,22.27,22.27,0,0,1-6.71,10.26,28.16,28.16,0,0,1-11.61,5.54,42.68,42.68,0,0,1-22.1-.73,22.75,22.75,0,0,1-13.17-10.16c-2.63-4.17-3.61-8.8-4.17-13.56a51.54,51.54,0,0,1,.71-16.89,25.69,25.69,0,0,1,6.7-13.18,24.59,24.59,0,0,1,12.6-6.61,43.3,43.3,0,0,1,21.83.64,22.8,22.8,0,0,1,15,13.16,37.61,37.61,0,0,1,2.85,12.49A28.42,28.42,0,0,1,305.39,31.31ZM275.26,53.89a17.86,17.86,0,0,0,3.67-.17c6.33-1.07,10.92-4.34,13.23-10.47a30.3,30.3,0,0,0,1.74-9c.29-4.9.06-9.75-1.77-14.37a15.15,15.15,0,0,0-10.31-9.57,24.89,24.89,0,0,0-9.94-.69c-5.65.72-10.09,3.29-12.66,8.51a28.14,28.14,0,0,0-2.65,12.59c0,5.1.4,10.1,2.82,14.75A14.21,14.21,0,0,0,265,51.43,18.31,18.31,0,0,0,275.26,53.89Z"/><path class="cls-2" d="M24,37c-3.37-.06-6.75.23-10.09-.54C9.85,35.47,6.1,34,3.49,30.53A18,18,0,0,1,.21,21.68a24.34,24.34,0,0,1,.1-7.13A14.9,14.9,0,0,1,8.94,3.26,30.73,30.73,0,0,1,19.5.43,77,77,0,0,1,47.15,2.76a1.35,1.35,0,0,1,1.19,1.35,21.65,21.65,0,0,1,0,2.67,42.15,42.15,0,0,0,.06,5.15c.1.92-.27,1.16-1.13.89a69.47,69.47,0,0,0-17-3.23A41.19,41.19,0,0,0,18,10.41a11.76,11.76,0,0,0-4,1.75c-2.94,2.09-3.54,5.05-2.92,8.31S13.87,25.36,17,26a19.12,19.12,0,0,0,3.7.38c3.54,0,7.08-.05,10.61,0a28.14,28.14,0,0,1,10.09,1.9,14.94,14.94,0,0,1,9.25,10.91,24.06,24.06,0,0,1-.31,12.38C49,56,45.77,58.68,41.64,60.4A38.19,38.19,0,0,1,27.5,63.31a86.64,86.64,0,0,1-12.87-.64,88,88,0,0,1-10.21-2C3,60.36,3,60.31,3,58.84c0-2.45,0-4.9,0-7.35,0-1,.1-1.16,1.06-.84a66.91,66.91,0,0,0,23.54,3.24,17.77,17.77,0,0,0,8-2,7.05,7.05,0,0,0,4.08-6.68c0-2.38-.52-4.48-2.38-6.09a8.86,8.86,0,0,0-4.9-1.93C29.61,36.82,26.81,37,24,37Z"/><path class="cls-2" d="M84.7,63.31c-1.37,0-2.74,0-4.11,0-.88,0-1.27-.38-1.6-1.16-2.14-5.08-3.74-10.36-5.93-15.42-2.31-5.35-3.91-11-6.25-16.31s-4-10.86-6.16-16.25C59,9.93,57.35,5.63,55.71,1.35c-.4-1.06-.37-1.08.78-1.16A94.17,94.17,0,0,1,66.71.2,1.27,1.27,0,0,1,68,1.14c2.42,7.22,5.22,14.29,7.81,21.44q4.11,11.31,8.28,22.6c.37,1,.76,2,1.16,3,.07.18.17.37.4.36s.24-.24.3-.42C91.5,32.87,97.09,17.59,102.58,2.28c.55-1.54,1.25-2.24,2.87-2.2,2.77.07,5.54,0,8.32.06.25,0,.5,0,.76,0,1.28,0,1.31,0,.84,1.14-2.28,5.59-4.58,11.19-6.86,16.79Q104.87,27,101.25,36q-4.08,10-8.17,20c-.87,2.15-1.77,4.29-2.62,6.45a1.27,1.27,0,0,1-1.36.94c-1.46,0-2.93,0-4.4,0Z"/></g></g></svg>