<svg xmlns="http://www.w3.org/2000/svg" viewBox="0 0 421.18 166.97"><defs><style>.cls-1,.cls-2{fill:#fff;}.cls-2{font-size:38.51px;font-family:LinGothic-Light;font-weight:300;letter-spacing:0.15em;}</style></defs><g id="圖層_2" data-name="圖層 2"><g id="圖層_1-2" data-name="圖層 1"><polygon class="cls-1" points="0 0.47 18.42 52.19 27.41 52.19 39.95 20.29 52.65 52.03 61.32 52.03 79.12 0.78 67.98 0.78 57.14 33.14 44.13 0.78 35.61 0.78 23.07 33.76 11.77 0.62 0 0.47"/><polygon class="cls-1" points="87.02 0.93 99.41 0.93 118.45 50.17 118.45 0.78 152.83 0.78 152.83 11.31 129.91 11.31 129.91 21.52 152.52 21.52 152.52 31.43 129.91 31.43 129.91 52.8 107.15 52.8 93.37 13.94 80.83 52.49 69.06 52.49 87.02 0.93"/><polygon class="cls-1" points="159.49 0.62 159.49 52.03 195.1 52.03 195.1 42.59 170.64 42.59 170.64 31.59 194.64 31.59 194.64 21.99 170.48 21.99 170.48 10.53 194.33 10.53 194.33 0.78 159.49 0.62"/><path class="cls-1" d="M232,28.8s8.67-2.32,8-14.71C239.62,6.36,233.35.62,227.62.62L201.76.77V52h11.61V31.75h7.9s6.51,4.33,10.69,19.51h11.92S239.08,31.9,232,28.8m-8.67-6.66c-1.4,0-10.38.31-10.38.31V10.22s8.83-.15,10.69-.15,5.26,2,5.26,6.35-4.18,5.72-5.57,5.72"/><polygon class="cls-1" points="251.16 0.62 251.16 52.03 284.92 52.03 284.92 43.05 262.15 43.05 262.39 0.7 251.16 0.62"/><path class="cls-1" d="M304,0c-14,0-25.39,11.82-25.39,26.4S289.94,52.8,304,52.8s25.4-11.81,25.4-26.4S318,0,304,0m0,41.35c-7.61,0-13.78-6.69-13.78-15S296.35,11.46,304,11.46s13.78,6.69,13.78,14.94-6.17,15-13.78,15"/><path class="cls-1" d="M371.63,36.7a20.2,20.2,0,0,1-13.16,4.65c-10.07,0-18.23-6.69-18.23-15s8.16-14.94,18.23-14.94a20.25,20.25,0,0,1,13.16,4.64V4.87A28,28,0,0,0,355.83,0c-15.1,0-27.36,11.82-27.36,26.4s12.26,26.41,27.36,26.41a28,28,0,0,0,15.8-4.87Z"/><polygon class="cls-1" points="378.75 1.24 378.75 51.72 390.05 51.72 390.05 28.96 407.4 52.03 421.18 52.03 401.67 25.09 420.71 1.4 409.26 1.4 390.36 23.38 390.36 1.24 378.75 1.24"/><text class="cls-2" transform="translate(99.38 160.45) scale(1 0.85)">精品電子鎖</text></g></g></svg>